<svg width="70" height="40" viewBox="0 0 70 40" xmlns="http://www.w3.org/2000/svg"><title>alipay</title><desc>Created with Sketch.</desc><g fill="none"><path d="M42.133 14.916c0 .644-.589 1.166-1.316 1.166-.727 0-1.316-.522-1.316-1.166 0-.644.589-1.166 1.316-1.166.727 0 1.316.522 1.316 1.166" fill="#5490C0"/><path d="M35.062 15.028v10.075h2.449v-10.641h-1.879c-.315 0-.57.253-.57.566" fill="#2F302F"/><path d="M39.593 17.861v7.243h2.449v-7.809h-1.879c-.315 0-.57.253-.57.566" fill="#2F302F"/><path d="M47.871 24.432c-.503 0-1.035-.472-1.444-.944v-4.187c.381-.376 1.029-.916 1.59-.916.841 0 1.626 1.144 1.626 2.815s-.768 3.232-1.773 3.232zm.804-7.318c-1.116 0-1.901.574-2.248.889v-.707h-1.879c-.315 0-.57.253-.57.566v10.366h2.449v-3.438c.372.279.874.478 1.553.478 2.284 0 4.038-1.961 4.038-4.431 0-2.47-1.809-3.723-3.344-3.723z" fill="#2F302F"/><path d="M56.533 24.232c-1.023 0-1.663-.599-1.663-1.707s1.133-1.798 2.028-1.798c.451 0 .729.142.895.284v2.708c-.288.249-.719.513-1.261.513zm.146-7.118c-2.156 0-2.869.454-2.869.454l.256.545s.804-.291 2.12-.291c1.462 0 1.608.781 1.608 1.743v.449c-.313-.091-.913-.231-1.663-.231-1.115 0-3.088.436-3.088 2.706s1.754 2.778 2.905 2.778c.674 0 1.377-.348 1.846-.637v.473h2.449v-5.539c0-1.634-1.407-2.451-3.563-2.451z" fill="#2F302F"/><path d="M69.96 17.113h-1.643l-2.204 4.989-.061-.118-2.513-4.872h-2.509l3.925 7.611-.401.908c-.619 1.22-2.391 1.138-2.391 1.138v1.022s.763.064 1.316 0c.526-.061 1.699-.408 2.269-1.611l1.171-2.519 3.043-6.547" fill="#2F302F"/><path d="M30.108 22.598h-4.421l2.25-4.648 2.171 4.648zm-1.099-8.135h-1.039l-5.151 10.641h1.655l.853-1.761h5.129l.823 1.761h2.701l-4.668-9.994-.303-.647z" fill="#2F302F"/><path d="M20.117 13.983v13.068c-.017 1.632-1.353 2.948-2.998 2.948h-13.122c-1.656 0-2.998-1.334-2.998-2.979v-13.038c0-1.645 1.342-2.979 2.998-2.979h13.122c1.656 0 2.998 1.334 2.998 2.979" fill="#5490C0"/><path d="M6.006 25.622c-2.548 0-2.943-1.427-2.987-2.279-.042-.745.465-2.144 3.342-2.144 1.07 0 2.767.543 4.673 1.334-1.077 1.406-2.802 3.09-5.028 3.09zm7.769-3.94c.982-1.874 1.634-3.853 1.634-3.853h-3.791v-1.327h4.673v-.808h-4.673v-2.136h-2.175v2.136h-4.673v.808h4.673v1.327h-3.93v.71h7.594s-.421 1.286-1.127 2.558c-2.037-.625-3.916-1.061-5.425-1.061-3.618 0-4.421 1.806-4.25 3.458.138 1.318 1.125 3.242 4.14 3.242 2.754 0 4.978-1.569 6.346-3.436 2.61 1.194 5.366 2.665 7.326 3.75v-3.134c-2.072-.706-4.254-1.53-6.342-2.236z" fill="#fff"/></g></svg>