<svg width="70" height="40" viewBox="0 0 70 40" xmlns="http://www.w3.org/2000/svg"><title>banktransfer-en</title><desc>Created with Sketch.</desc><path d="M11.669 19c2.256 0 3.611-1.135 3.611-2.996 0-1.377-.952-2.395-2.38-2.542v-.125c1.04-.176 1.853-1.165 1.853-2.271 0-1.626-1.194-2.637-3.179-2.637h-4.248v10.569h4.343zm-2.703-9.177h2.227c1.216 0 1.926.571 1.926 1.545 0 1.003-.754 1.538-2.205 1.538h-1.948v-3.083zm0 7.786v-3.406h2.278c1.545 0 2.358.579 2.358 1.685 0 1.121-.784 1.721-2.263 1.721h-2.373zm10.478.198c-.857 0-1.479-.417-1.479-1.135 0-.703.498-1.077 1.597-1.15l1.948-.125v.667c0 .989-.879 1.743-2.065 1.743zm-.403 1.326c1.047 0 1.919-.454 2.395-1.252h.125v1.121h1.516v-5.449c0-1.685-1.128-2.681-3.127-2.681-1.809 0-3.098.879-3.259 2.249h1.523c.176-.564.784-.886 1.663-.886 1.077 0 1.633.476 1.633 1.318v.688l-2.161.125c-1.897.117-2.966.945-2.966 2.38 0 1.458 1.121 2.388 2.659 2.388zm5.915-.132h1.575v-4.666c0-1.245.74-2.021 1.904-2.021 1.165 0 1.721.637 1.721 1.919v4.768h1.575v-5.164c0-1.897-.981-2.966-2.761-2.966-1.201 0-1.992.535-2.38 1.421h-.117v-1.267h-1.516v7.976zm10.398-4.651h-.125v-6.438h-1.575v11.089h1.575v-2.856l.696-.659 2.739 3.516h1.934l-3.501-4.556 3.281-3.42h-1.86l-3.164 3.325zm-24.191 16.651l1.941-9.075h3.311l.3-1.494h-8.284l-.3 1.494h3.311l-1.948 9.075h1.67zm3.938 0h1.589l.974-4.578c.3-1.362 1.003-2.007 2.197-2.007.308 0 .82.066 1.077.146l.33-1.538c-.183-.081-.593-.132-.967-.132-.901 0-1.582.396-2.073 1.179h-.125l.22-1.047h-1.523l-1.699 7.976zm8.691-1.179c-.828 0-1.406-.454-1.406-1.091 0-.74.688-1.223 1.868-1.274l1.941-.088-.183.82c-.212.938-1.135 1.633-2.219 1.633zm-.579 1.311c.952 0 1.831-.439 2.351-1.15h.125l-.22 1.018h1.531l1.099-5.2c.044-.205.066-.432.066-.645 0-1.377-1.201-2.285-3.018-2.285-1.692 0-2.981.864-3.325 2.241h1.575c.234-.564.813-.872 1.626-.872.981 0 1.567.417 1.567 1.113l-.044.337-.11.52-2.161.088c-2.219.081-3.472 1.055-3.472 2.644 0 1.245 1.033 2.19 2.41 2.19zm5.6-.132h1.589l1.025-4.79c.242-1.091 1.025-1.897 2.146-1.897.974 0 1.516.593 1.516 1.45 0 .212-.029.439-.088.703l-.967 4.534h1.589l1.018-4.812c.066-.33.103-.645.103-.93 0-1.289-.908-2.366-2.424-2.366-1.165 0-1.919.601-2.424 1.355h-.117l.256-1.223h-1.531l-1.692 7.976zm8.669-2.205c.095 1.406 1.399 2.358 3.259 2.358 1.926 0 3.303-1.033 3.303-2.498 0-1.055-.557-1.699-1.882-2.131l-1.15-.396c-.681-.22-1.033-.52-1.033-.952 0-.593.645-1.025 1.531-1.025.857 0 1.472.381 1.611.981h1.509c-.176-1.355-1.326-2.263-3.105-2.263-1.794 0-3.098.989-3.098 2.468 0 1.055.615 1.699 1.86 2.117l1.223.41c.696.227.93.535.93.945 0 .63-.674 1.069-1.663 1.069-.923 0-1.553-.454-1.721-1.084h-1.575zm8.142 2.205h1.604l1.392-6.614h1.758l.264-1.326h-1.772l.139-.696c.146-.754.571-1.091 1.245-1.091.366 0 .63.037.784.073l.256-1.238c-.256-.059-.593-.125-1.033-.125-1.633 0-2.512.659-2.82 2.241l-.161.835h-1.304l-.271 1.326h1.318l-1.399 6.614zm8.222.154c1.897 0 3.201-.967 3.545-2.3h-1.597c-.3.564-.886.923-1.846.923-.938 0-1.875-.601-1.875-2.065l.007-.322h5.676c.051-.337.103-.923.103-1.245-.007-2.058-1.414-3.274-3.149-3.274-2.468 0-4.204 1.978-4.204 4.907 0 2.153 1.458 3.376 3.34 3.376zm-1.575-4.922c.337-1.208 1.201-2.021 2.336-2.021 1.099 0 1.692.776 1.692 1.707l-.022.315h-4.006zm6.186 4.768h1.589l.974-4.578c.3-1.362 1.003-2.007 2.197-2.007.308 0 .82.066 1.077.146l.33-1.538c-.183-.081-.593-.132-.967-.132-.901 0-1.582.396-2.073 1.179h-.125l.22-1.047h-1.523l-1.699 7.976z" fill="#18799F"/></svg>