<svg width="70" height="40" viewBox="0 0 70 40" xmlns="http://www.w3.org/2000/svg"><title>dotpay</title><desc>Created with Sketch.</desc><g fill="none"><path d="M68.276 9.067c.937 0 1.664.729 1.664 1.638 0 .929-.727 1.648-1.674 1.648-.937 0-1.684-.719-1.684-1.648 0-.909.747-1.638 1.684-1.638h.01zm-.02.33c-.718 0-1.256.589-1.256 1.309 0 .729.538 1.309 1.276 1.309.717.01 1.246-.579 1.246-1.309 0-.719-.528-1.309-1.256-1.309h-.01zm-.249 2.158h-.379v-1.628c.15-.03.359-.06.628-.06.309 0 .448.05.568.13.09.07.159.2.159.35 0 .19-.14.33-.339.389v.02c.159.05.249.18.299.4.05.25.08.35.12.4h-.409c-.05-.06-.08-.2-.13-.39-.03-.18-.129-.26-.339-.26h-.179v.649zm.01-.919h.179c.209 0 .379-.07.379-.24 0-.15-.11-.25-.349-.25l-.209.02v.47z" id="Shape" fill="#000"/><path d="M9.334 13.361h-2.826c-1.605 0-2.826.336-3.688 1.008-1.294 1.008-2.036 2.809-2.036 4.922 0 1.897.575 3.481 1.605 4.466 1.006.96 2.108 1.297 4.335 1.297h5.317v-16.014h-2.707v4.321zm0 9.556h-2.611c-2.132 0-3.162-1.224-3.162-3.793 0-2.425 1.126-3.625 3.353-3.625h2.419v7.419zM26.116 13.361h-2.132v2.137h2.132v5.642c0 1.681.239 2.497.886 3.145.623.576 1.293.768 2.754.768h2.299v-2.137h-1.317c-1.629 0-1.916-.312-1.916-2.137v-5.282h3.233v-2.137h-3.233v-4.321h-2.706v4.321z" id="Shape" fill="#9E1A1D"/><path d="M32.76 13.358v15.73h2.706v-4.038h2.491c2.227 0 3.258-.312 4.239-1.248 1.03-1.008 1.653-2.689 1.653-4.538 0-2.041-.575-3.649-1.701-4.682-1.03-.936-1.988-1.225-4.239-1.225h-5.15zm2.706 2.137h2.228c2.275 0 3.353 1.152 3.353 3.577 0 1.368-.311 2.449-.886 3.049-.479.528-1.365.792-2.587.792h-2.108v-7.418zM48.76 17.923c-1.341 0-2.203.12-2.754.384-1.125.504-1.82 1.753-1.82 3.241 0 1.176.455 2.185 1.269 2.809.766.576 1.413.696 3.784.696h6.275v-7.034c0-1.849-.216-2.689-.886-3.481-.766-.912-1.652-1.176-4.095-1.176h-5.724v2.137h5.461c1.341 0 1.844.168 2.204.672.287.408.335.744.335 1.753h-4.048zm4.048 2.137v2.857h-3.808c-1.461 0-2.036-.384-2.036-1.392 0-.648.287-1.128.766-1.32.287-.12.551-.144 1.269-.144h3.808zM63.893 22.917h-2.802c-1.676 0-2.155-.624-2.155-2.881v-6.675h-2.706v6.482c0 2.305.144 3.001.814 3.841.814.984 1.868 1.368 3.784 1.368h3.066c-.048.965-.12 1.229-.479 1.469-.311.264-.671.312-1.844.312h-5.341v2.137h5.413c2.132 0 3.066-.264 3.832-1.032.766-.792 1.126-2.113 1.126-4.038v-10.54h-2.706v9.555z" id="Shape" fill="#000"/><path d="M21.131 21.927c0 .442-.36.803-.801.803h-3.698c-.44 0-.801-.361-.801-.803v-2.408c0-.331.202-.616.488-.739v-1.804c.001-.629.487-1.167 1.131-1.172h2.051c.644.005 1.13.543 1.131 1.172v1.8c.292.12.499.408.499.743v2.408z" fill="#fff"/><path d="M19.549 16.667h-2.051c-.057 0-.11.023-.158.073-.047.049-.078.12-.078.203v1.74h2.523v-1.74c0-.082-.032-.153-.078-.203-.048-.049-.101-.072-.158-.073zM18.53 13.44c-3.191 0-5.779 2.594-5.779 5.793 0 3.199 2.588 5.794 5.779 5.794s5.779-2.595 5.779-5.794c0-3.199-2.588-5.793-5.779-5.793zm2.602 8.487c0 .442-.36.803-.801.803h-3.698c-.44 0-.801-.361-.801-.803v-2.408c0-.331.202-.616.488-.739v-1.804c.001-.629.487-1.167 1.131-1.172h2.051c.644.005 1.13.543 1.131 1.172v1.8c.292.12.499.408.499.743v2.408z" fill="#9E1A1D"/></g></svg>