<svg width="70" height="40" viewBox="0 0 70 40" xmlns="http://www.w3.org/2000/svg"><title>fashionchq</title><desc>Created with Sketch.</desc><g fill-rule="nonzero" fill="none"><g id="Group" fill="#000"><g id="Shape"><path d="M12.413 20.112c-.845-.233-1.35-.26-1.35-.67 0-.271.224-.447.619-.447.581 0 1.068.307 1.424.912h.629v-1.498h-.629l-.141.269c-.421-.261-.899-.391-1.434-.391-1.153 0-1.866.643-1.866 1.434 0 .755.572 1.153 1.771 1.462.732.185 1.154.26 1.154.614 0 .27-.262.475-.74.475-.712 0-1.237-.382-1.436-1.071h-.73s-.002.958-.651.958c-.178 0-.404-.146-.404-.437v-1.982c0-.411-.018-.727-.374-1.036-.291-.25-.814-.418-1.528-.418-1.321 0-2.044.504-2.044 1.22 0 .419.32.698.768.698.404 0 .724-.269.724-.585 0-.298-.198-.513-.535-.541.198-.195.44-.26.787-.26.534 0 .91.298.91.755 0 .661-.639.688-1.529.912-.9.233-1.331.578-1.331 1.276 0 .745.534 1.256 1.425 1.256.592 0 1.079-.223 1.519-.679.188.456.534.671 1.078.671.806 0 1.185-.41 1.185-.609v.515h.647l.159-.354c.525.298 1.067.455 1.631.455 1.116 0 1.856-.632 1.856-1.461 0-.828-.544-1.164-1.565-1.442zm-5.112 1.155c0 .595-.318.903-.844.903-.329 0-.535-.215-.535-.513 0-.52.526-.614 1.379-1.033v.643zM21.573 18.054c.412 0 .731-.336.731-.737 0-.399-.328-.725-.731-.725-.403 0-.732.317-.732.725 0 .411.319.737.732.737zM22.811 22.235c-.442 0-.479-.151-.479-.559v-3.222h-2.118v.69h.27c.432 0 .498.139.498.558v1.974c0 .419-.066.559-.498.559h-.741c-.487 0-.534-.14-.534-.559v-1.741c0-1.09-.348-1.621-1.434-1.621-.61 0-1.116.28-1.537.868v-2.581h-2.083v.688h.235c.432 0 .496.14.496.559v3.827c0 .419-.065.559-.496.559h-.235v.689h2.719v-.689h-.159c-.44 0-.476-.151-.476-.559v-1.379c0-.735.41-1.211.974-1.211.505 0 .646.298.646.867v1.722c0 .409-.036.559-.478.559h-.169v.689h5.878v-.689h-.281zM28.21 20.726c0 1.406-.984 2.356-2.541 2.356-1.528 0-2.53-.94-2.53-2.356s.992-2.365 2.541-2.365c1.528 0 2.53.949 2.53 2.365zm-3.59-.046c0 1.137.337 1.685 1.06 1.685.712 0 1.039-.548 1.039-1.648 0-1.09-.327-1.631-1.039-1.631-.695 0-1.06.541-1.06 1.593zM31.368 22.235h.169c.441 0 .479-.151.479-.559v-1.722c0-.569-.131-.867-.638-.867-.561 0-.983.475-.983 1.211v1.379c0 .409.036.559.477.559h.168v.689h-2.764v-.689h.273c.432 0 .496-.14.496-.559v-1.974c0-.419-.065-.558-.496-.558h-.273v-.69h2.091v.782c.506-.633.947-.922 1.593-.922 1.058 0 1.407.54 1.407 1.621v1.741c0 .419.047.559.534.559h.206v.689h-2.738v-.689zM38.495 21.285c-.178 1.191-.863 1.806-2.015 1.806-1.353 0-2.242-.912-2.242-2.338 0-1.394.985-2.391 2.362-2.391 1.154 0 1.942.652 1.942 1.388 0 .429-.264.68-.609.68-.348 0-.545-.205-.545-.486 0-.296.159-.454.515-.509-.206-.402-.609-.616-1.237-.616-.929 0-1.518.699-1.518 1.935 0 1.119.543 1.789 1.415 1.789.74 0 1.219-.428 1.388-1.256h.545zM38.785 15.461h-.215v-.447h1.621v4.195c.364-.586.929-.884 1.631-.884.563 0 .976.186 1.246.559.253.345.272.819.272 1.452v1.602c0 .429.104.53.611.53h.205v.458h-2.52v-.458h.299c.507 0 .609-.102.609-.53v-1.72c0-.961-.225-1.388-.938-1.388-.834 0-1.415.575-1.415 1.506v1.602c0 .429.094.53.601.53h.307v.458h-2.53v-.458h.215c.506 0 .6-.102.6-.53v-5.945c0-.429-.095-.53-.601-.53zM48.366 21.48c-.217 1.071-.882 1.611-2.017 1.611-1.313 0-2.23-.921-2.23-2.365 0-1.424.89-2.365 2.23-2.365 1.388 0 2.148.847 2.157 2.439h-3.479v.065c0 1.109.487 1.694 1.38 1.694.72 0 1.199-.373 1.405-1.081h.554zm-2.035-2.651c-.759 0-1.218.52-1.274 1.479h2.521c-.018-.998-.412-1.479-1.247-1.479zM59.447 22.467c-.507 0-.61-.102-.61-.53v-3.406h-1.772v.446h.364c.507 0 .601.11.601.541v1.517c0 .929-.582 1.517-1.416 1.517-.713 0-.936-.429-.936-1.387v-2.634h-3.189v.753c-.384-.605-.91-.893-1.594-.893-1.173 0-2.008.912-2.008 2.336 0 1.425.834 2.356 2.027 2.356.693 0 1.191-.289 1.575-.895v1.752c0 .429-.104.54-.609.54h-.3v.447h2.532v-.447h-.216c-.505 0-.61-.111-.61-.54v-4.421c0-.431.105-.541.61-.541h.375c.507 0 .61.11.61.541v1.526c0 .633.019 1.108.272 1.453.272.372.684.548 1.246.548.704 0 1.266-.299 1.632-.885v.766h1.678v-.458h-.262zm-8.382.065c-.796 0-1.267-.642-1.267-1.806 0-1.153.479-1.796 1.267-1.796.863 0 1.425.69 1.425 1.823 0 1.091-.572 1.779-1.425 1.779zM64.002 21.48c-.216 1.071-.882 1.611-2.014 1.611-1.313 0-2.232-.921-2.232-2.365 0-1.424.89-2.365 2.232-2.365 1.387 0 2.145.847 2.155 2.439h-3.479v.065c0 1.109.488 1.694 1.38 1.694.721 0 1.2-.373 1.405-1.081h.553zm-2.034-2.651c-.76 0-1.219.52-1.275 1.479h2.522c-.02-.998-.413-1.479-1.247-1.479z"/></g><path d="M3.579 15.059c-1.107 0-1.725.568-1.725 1.666v1.806h-.704v.753h.244c.376.024.459.155.459.537h.001v1.825c0 .419-.067.632-.499.632h-.356v.647h3.179v-.647h-.496c-.44 0-.479-.224-.479-.632v-1.989c.027-.257.135-.353.45-.373h.385v-.753h-.835v-2.011c0-.632.094-.931.563-.931.131 0 .244.039.384.112-.272.102-.413.269-.413.503 0 .297.253.55.619.55.412 0 .676-.261.676-.679 0-.578-.554-1.016-1.453-1.016z" id="Shape"/></g><g fill="#EC008C"><path d="M64.793 17.257c0-1.006.826-1.826 1.84-1.826 1.013 0 1.84.82 1.84 1.826 0 1.006-.827 1.827-1.84 1.827-1.014 0-1.84-.821-1.84-1.827m-.436 0c0 1.247 1.022 2.259 2.276 2.259 1.253 0 2.274-1.012 2.274-2.259 0-1.244-1.021-2.257-2.274-2.257-1.254 0-2.276 1.012-2.276 2.257" id="Shape"/><path d="M65.639 16.621v1.248h.327v-.49h.354v-.265h-.354v-.209h.575v-.284zM67.198 17.616c-.154 0-.289-.165-.289-.37s.135-.371.289-.371c.114 0 .212.091.257.222l.309-.088c-.09-.244-.309-.416-.565-.416-.334 0-.604.293-.604.654 0 .36.27.652.604.652.257 0 .475-.173.565-.415l-.309-.087c-.045.128-.143.22-.257.22"/></g></g></svg>