<svg width="70" height="40" viewBox="0 0 70 40" xmlns="http://www.w3.org/2000/svg"><title>mastercard</title><desc>Created with Sketch.</desc><g fill="none"><path d="M58.94 38.835v.102h.093l.051-.012.019-.04-.019-.038-.051-.012h-.093zm.094-.072l.113.032.039.09-.031.079-.09.037.124.144h-.097l-.115-.144h-.037v.144h-.081v-.383h.175zm-.024.515l.123-.025.1-.069.068-.102.024-.125-.024-.125-.068-.102-.1-.069-.123-.024-.126.024-.101.069-.068.102-.024.125.024.125.068.102.101.069.126.025zm0-.734l.162.032.132.088.089.131.032.161-.032.16-.089.131-.132.089-.162.032-.165-.032-.132-.089-.089-.131-.032-.16.032-.161.089-.131.132-.088.165-.032zm-38.221-1.474c0-.73.471-1.329 1.243-1.329.737 0 1.234.573 1.234 1.329s-.497 1.329-1.234 1.329c-.772 0-1.243-.599-1.243-1.329zm3.316 0v-2.076h-.891v.504c-.283-.374-.712-.608-1.295-.608-1.149 0-2.049.913-2.049 2.18 0 1.268.9 2.18 2.049 2.18.582 0 1.011-.234 1.295-.607v.503h.891v-2.076zm30.102 0c0-.73.472-1.329 1.243-1.329.737 0 1.235.573 1.235 1.329s-.498 1.329-1.235 1.329c-.771 0-1.243-.599-1.243-1.329zm3.317 0v-3.743h-.892v2.172c-.282-.374-.711-.608-1.294-.608-1.149 0-2.049.913-2.049 2.18 0 1.268.9 2.18 2.049 2.18.583 0 1.011-.234 1.294-.607v.503h.892v-2.076zm-22.362-1.372c.574 0 .943.365 1.037 1.008h-2.125c.094-.599.454-1.008 1.088-1.008zm.017-.808c-1.2 0-2.04.886-2.04 2.18 0 1.32.875 2.18 2.1 2.18.616 0 1.182-.157 1.679-.582l-.437-.668c-.343.278-.78.434-1.192.434-.574 0-1.097-.269-1.226-1.016h3.043l.017-.348c-.008-1.294-.797-2.18-1.946-2.18zm10.757 2.18c0-.73.472-1.329 1.244-1.329.737 0 1.234.573 1.234 1.329s-.497 1.329-1.234 1.329c-.772 0-1.244-.599-1.244-1.329zm3.317 0v-2.076h-.892v.504c-.282-.374-.711-.608-1.294-.608-1.149 0-2.049.913-2.049 2.18 0 1.268.9 2.18 2.049 2.18.583 0 1.011-.234 1.294-.607v.503h.892v-2.076zm-8.348 0c0 1.259.866 2.18 2.185 2.18.617 0 1.029-.138 1.474-.495l-.428-.73c-.334.244-.686.374-1.071.374-.712-.009-1.235-.53-1.235-1.329 0-.798.523-1.32 1.235-1.329.385 0 .737.13 1.071.374l.428-.73c-.445-.356-.857-.495-1.474-.495-1.32 0-2.185.921-2.185 2.18zm11.485-2.18c-.513 0-.848.244-1.079.608v-.504h-.883v4.152h.891v-2.327c0-.686.292-1.068.875-1.068.179 0 .368.026.557.104l.273-.851c-.196-.078-.454-.113-.634-.113zm-23.879.435c-.428-.287-1.019-.435-1.671-.435-1.037 0-1.705.504-1.705 1.329 0 .677.497 1.094 1.413 1.225l.421.061c.488.07.719.199.719.434 0 .321-.325.504-.934.504-.617 0-1.063-.2-1.363-.435l-.42.704c.489.365 1.106.539 1.774.539 1.183 0 1.869-.564 1.869-1.354 0-.73-.541-1.112-1.432-1.242l-.42-.062c-.385-.052-.694-.129-.694-.407 0-.304.291-.487.78-.487.524 0 1.028.2 1.278.357l.385-.73zm11.495-.435c-.515 0-.849.244-1.08.608v-.504h-.883v4.152h.891v-2.327c0-.686.292-1.068.875-1.068.179 0 .369.026.558.104l.274-.851c-.198-.078-.455-.113-.634-.113zm-7.603.104h-1.457v-1.259h-.9v1.259h-.832v.826h.832v1.893c0 .964.368 1.537 1.422 1.537.386 0 .832-.121 1.114-.321l-.256-.773c-.266.157-.557.234-.789.234-.446 0-.591-.278-.591-.694v-1.876h1.457v-.826zm-13.32 4.152v-2.605c0-.981-.616-1.641-1.611-1.65-.523-.008-1.063.157-1.44.739-.282-.461-.728-.739-1.354-.739-.437 0-.866.13-1.2.616v-.512h-.892v4.152h.901v-2.301c0-.722.394-1.104 1.002-1.104.591 0 .892.391.892 1.095v2.31h.9v-2.301c0-.722.412-1.104 1.003-1.104.608 0 .9.391.9 1.095v2.31h.9z" fill="#000"/><path fill="#E15D29" d="M28.214 27.94h13.501v-24.585h-13.501z"/><path d="M29.072 15.648c0-4.988 2.305-9.429 5.893-12.293-2.625-2.094-5.936-3.343-9.536-3.343-8.522 0-15.429 7.001-15.429 15.636 0 8.635 6.908 15.636 15.429 15.636 3.6 0 6.911-1.249 9.536-3.343-3.589-2.863-5.893-7.305-5.893-12.293" fill="#D3222B"/><path d="M59.449 25.336v-.606h-.157l-.18.417-.179-.417h-.157v.606h.11v-.458l.169.395h.115l.169-.396v.459h.111zm-.99 0v-.503h.2v-.102h-.511v.102h.2v.503h.11zm1.472-9.689c0 8.636-6.908 15.636-15.429 15.636-3.6 0-6.911-1.249-9.535-3.343 3.589-2.862 5.893-7.305 5.893-12.293 0-4.988-2.304-9.429-5.893-12.293 2.624-2.093 5.935-3.342 9.535-3.342 8.522 0 15.429 7 15.429 15.635z" fill="#ED972D"/></g></svg>