<svg width="70" height="40" viewBox="0 0 70 40" xmlns="http://www.w3.org/2000/svg"><title>payafter-nl</title><desc>Created with Sketch.</desc><g fill="none"><path d="M27.872 11.125h2.2c.352 0 1.232 0 1.76.625.44.446.44 1.071.44 1.339 0 .893-.352 1.607-1.144 1.875l-.352.089h.264c1.056.179 1.584.893 1.584 1.964 0 .446-.088 1.607-1.144 2.054-.616.268-1.32.268-2.2.268h-1.32l-.088-.089v-6.428999999999999c-.088-.804-.088-1.25 0-1.696zm2.552 3.393c.352-.179.704-.536.704-1.339 0-1.339-.968-1.339-1.408-1.339h-.616v2.768c.616.089.968.089 1.32-.089zm.264 3.75c.44-.268.616-.714.616-1.339 0-1.429-1.144-1.429-1.76-1.429h-.528v2.946c.88.089 1.32.089 1.672-.179zM34.12 16.393c0 .446 0 .893.176 1.25.44.893 1.32.893 1.496.893.616 0 1.056-.268 1.232-.446h.088c0 .357 0 .446-.088.893l-.088.089c-.088.089-.176.089-.44.179-.352.089-.792.089-.968.089-.528 0-1.32-.089-1.936-.893-.528-.625-.616-1.518-.616-2.321 0-2.143 1.056-2.768 1.408-2.946.264-.089.616-.179.88-.179.352 0 .616.089.88.179 1.144.536 1.232 1.875 1.144 3.036l-.088.089h-3.08v.089zm2.112-.804c0-.179 0-.446-.088-.714-.176-.804-.704-.893-.968-.893-.088 0-.44 0-.792.446-.264.446-.352.893-.352 1.25h2.2v-.089zM40.104 14.161h-.88v3.3040000000000003c0 .714 0 1.161.616 1.161.176 0 .352-.089.44-.089l.088.089c0 .357 0 .446-.088.804l-.088.089c-.176.089-.44.089-.792.089-.704 0-1.144-.357-1.32-1.071v-4.285h-.616l-.088-.089c0-.357 0-.446.088-.714l.088-.089h.616v-1.429l-.088-.179c.44-.089.528-.089 1.056-.268l.088.089v1.786h.968l.088.089c-.088.268-.088.357-.176.714zM43.272 18.893c-.264.179-.704.536-1.408.536-1.056 0-1.672-.804-1.672-1.875 0-1.786 1.672-2.143 2.464-2.321l.528-.089c0-.625 0-1.25-1.056-1.25-.792 0-1.144.268-1.408.446l-.088-.089c0-.357 0-.446.088-.804l.088-.089c.528-.268 1.232-.357 1.672-.357.44 0 1.232 0 1.584.714.176.446.176.804.176 1.786v1.25c0 1.161 0 1.607.088 2.411l-.088.089h-.968l-.088-.089.088-.268zm0-2.946c-.792.179-.968.179-1.232.357-.616.357-.704.804-.704 1.161 0 .714.44 1.071.968 1.071s.792-.268.968-.446v-2.143zM48.024 18.893c-.264.179-.704.536-1.408.536-1.056 0-1.672-.804-1.672-1.875 0-1.786 1.672-2.143 2.464-2.321l.528-.089c0-.625 0-1.25-1.056-1.25-.792 0-1.144.268-1.408.446l-.088-.089c0-.357 0-.446.088-.804l.088-.089c.528-.268 1.232-.357 1.672-.357.44 0 1.232 0 1.584.714.176.446.176.804.176 1.786v1.25c0 1.161 0 1.607.088 2.411l-.088.089h-.968l-.088-.089.088-.268zm0-2.946c-.792.179-.968.179-1.232.357-.616.357-.704.804-.704 1.161 0 .714.44 1.071.968 1.071s.792-.268.968-.446v-2.143zM51.192 19.339h-1.144l-.088-.089v-6.9639999999999995c0-.893-.088-1.161-.088-1.607l.088-.089c.528-.089.704-.089 1.144-.179l.088.089v8.839z" id="Shape" fill="#191415"/><path d="M57.616 19.339v-4.107c0-.268-.088-1.071-.792-1.071-.528 0-.968.357-1.144.625 0 .893 0 3.482.088 4.554h-1.1440000000000001l-.088-.089c0-.536.088-1.25.088-2.411s0-2.321-.088-3.482l.088-.089c.44-.089.616-.089 1.144-.179l.088.089c0 .268-.088.357-.088.714.528-.446 1.056-.804 1.672-.804.792 0 1.144.446 1.32.893.176.446.176.714.176 1.696v.982c0 1.696 0 1.875.088 2.411l-.088.089c-.704.179-.792.179-1.32.179zM62.456 18.893c-.264.179-.704.536-1.408.536-1.056 0-1.672-.804-1.672-1.875 0-1.786 1.672-2.143 2.464-2.321l.528-.089c0-.625 0-1.25-1.056-1.25-.792 0-1.144.268-1.408.446l-.088-.089c0-.357 0-.446.088-.804l.088-.089c.528-.268 1.232-.357 1.672-.357.44 0 1.232 0 1.584.714.176.446.176.804.176 1.786v1.25c0 1.161 0 1.607.088 2.411l-.088.089h-.968l-.088-.089.088-.268zm0-2.946c-.792.179-.968.179-1.232.357-.616.357-.704.804-.704 1.161 0 .714.44 1.071.968 1.071s.792-.268.968-.446v-2.143z" id="Shape" fill="#29ABE2"/><path d="M32.976 22.732c.44.536.968 1.518.968 3.393 0 2.589-1.056 4.196-3.168 4.196-2.2 0-3.168-1.875-3.168-4.286 0-1.518.352-2.589.88-3.214.792-.893 1.76-.982 2.288-.982.44-.089 1.408 0 2.2.893zm-2.2-.089c-.264 0-.528.089-.792.179-.968.625-1.144 2.411-1.144 3.125 0 .893.176 1.875.616 2.589.352.536.792.804 1.408.804 1.496 0 1.848-1.786 1.848-3.304 0-1.696-.528-3.393-1.936-3.393zM37.816 30.143v-4.107c0-.268-.088-1.071-.792-1.071-.528 0-.968.357-1.144.625 0 .893 0 3.482.088 4.554l-.088.089h-1.056l-.088-.089c0-.536.088-1.25.088-2.411s0-2.321-.088-3.482l.088-.089c.44-.089.616-.089 1.144-.179l.088.089c0 .268-.088.357-.088.714.528-.446 1.056-.804 1.672-.804.792 0 1.144.446 1.32.893.176.446.176.714.176 1.696v.982c0 1.696 0 1.875.088 2.411l-.264.179h-1.144zM42.04 24.964h-.88v3.3040000000000003c0 .714 0 1.161.616 1.161.176 0 .352-.089.44-.089l.088.089c0 .357 0 .446-.088.804l-.088.089c-.176.089-.44.089-.792.089-.704 0-1.144-.357-1.32-1.071v-4.375h-.616l-.088-.089c0-.357 0-.446.088-.714l.088-.089h.616v-1.429l.088-.089c.44-.089.528-.089 1.056-.268l.088.089v1.786h.968l.088.089c-.352.268-.352.357-.352.714zM44.416 29.071l.528-2.143c.44-1.607.528-2.054.616-2.768l.088-.089h.968l.088.089c-.264.893-.528 1.786-.704 2.5l-.44 1.696c-.176.536-.264 1.161-.44 1.786l-.088.089h-1.144l-.088-.089-.968-3.482c-.264-1.071-.352-1.339-.704-2.411l.088-.089c.528 0 .616 0 1.144-.089l.088.089c.088.714.176 1.161.704 3.036l.264 1.875zM49.608 29.696c-.264.179-.704.536-1.408.536-1.056 0-1.672-.804-1.672-1.875 0-1.786 1.672-2.143 2.464-2.321l.528-.089c0-.625 0-1.25-1.056-1.25-.792 0-1.144.268-1.408.446l-.088-.089c0-.357 0-.446.088-.804l.088-.089c.528-.268 1.232-.357 1.672-.357.44 0 1.232 0 1.584.714.176.446.176.804.176 1.786v1.339c0 1.161 0 1.607.088 2.411l-.088.089h-.968l-.088-.089.088-.357zm0-2.946c-.792.179-.968.179-1.232.357-.616.357-.704.804-.704 1.161 0 .714.44 1.071.968 1.071s.792-.268.968-.446v-2.143zM54.712 30.143v-4.107c0-.268-.088-1.071-.792-1.071-.528 0-.968.357-1.144.625 0 .893 0 3.482.088 4.554l-.088.089h-1.056l-.088-.089c0-.536.088-1.25.088-2.411s0-2.321-.088-3.482l.088-.089c.44-.089.616-.089 1.144-.179l.088.089c0 .268-.088.357-.088.714.528-.446 1.056-.804 1.672-.804.792 0 1.144.446 1.32.893.176.446.176.714.176 1.696v.982c0 1.696 0 1.875.088 2.411l-.088.089c-.704.089-.792.089-1.32.089zM61.048 24.875c-.352-.089-.44-.089-.88-.089.616.357.616 1.161.616 1.429 0 .982-.616 1.875-1.936 1.875-.176 0-.264 0-.44-.089l-.176.446v.089c.176.089 1.144.446 1.408.536.792.268 1.496.625 1.496 1.696 0 .893-.704 1.875-2.288 1.875-1.408 0-2.2-.804-2.2-1.607 0-.625.352-1.161 1.056-1.607l-.528-.268v-.089l.616-1.071c-.264-.089-.968-.625-.968-1.696 0-.804.264-1.25.528-1.518.528-.536 1.144-.625 1.848-.625h2.024l.088.089c-.176.179-.176.268-.264.625zm-3.52 6.071c0 .625.44.982 1.144.982s1.144-.446 1.144-.982-.352-.804-1.056-1.071c-.088 0-.44-.179-.616-.268-.352.536-.616.893-.616 1.339zm1.144-6.161c-.528 0-.968.536-.968 1.339 0 .804.44 1.339.968 1.339s.88-.446.88-1.25c.088-.893-.264-1.429-.88-1.429zM61.4 28.982c.176.179.616.446 1.232.446s.968-.446.968-.893c0-.536-.352-.714-.792-.982l-.352-.179c-.704-.446-1.232-.714-1.232-1.696 0-.446.176-.893.44-1.25.352-.357.88-.536 1.496-.536.264 0 .792 0 1.32.268v.9810000000000001h-.088c-.352-.357-.792-.446-1.144-.446-.616 0-.968.357-.968.804 0 .446.352.714.704.893l.352.179c.616.357 1.32.714 1.32 1.786 0 .625-.264 1.071-.528 1.339-.352.536-.88.625-1.408.625-.528 0-.968-.089-1.408-.268l-.088-.089v-.446c.088-.268.088-.357.176-.536zM67.472 24.964h-.88v3.3040000000000003c0 .714 0 1.161.616 1.161.176 0 .352-.089.44-.089l.088.089c0 .357 0 .446-.088.804l-.088.089c-.176.089-.44.089-.792.089-.704 0-1.144-.357-1.32-1.071v-4.375h-.616l-.088-.089c0-.357 0-.446.088-.714l.088-.089h.616v-1.429l.088-.089c.44-.089.528-.089 1.056-.268l.088.089v1.786h.968l.088.089c-.264.268-.264.357-.352.714z" id="Shape" fill="#8A8A8B"/><path d="M12.208 29.964c.616 0 1.32.089 2.112.089s1.496 0 2.112-.089v-14.018c-.616 0-1.32-.089-2.112-.089s-1.496 0-2.112.089v14.018zM5.784 18.268v9.464c0 .982.792 1.786 1.76 1.786 0 0 1.232.357 3.696.446v-14.018c-2.464.179-3.696.446-3.696.446-.968.089-1.76.893-1.76 1.875zm15.224-1.786s-1.232-.357-3.696-.446v14.018c2.464-.179 3.696-.446 3.696-.446.968 0 1.76-.804 1.76-1.786v-9.554c0-.982-.792-1.786-1.76-1.786zM11.328 8.089c-1.232-.446-4.488 2.946-4.048 4.375.44 1.339 3.608 2.857 3.608 2.857l2.728-.268s-1.056-6.518-2.288-6.964zm-2.024 4.732c-.176-.625 1.408-2.321 1.936-2.143.616.268 1.144 3.393 1.144 3.393l-1.32.179s-1.496-.714-1.76-1.429zM14.936 15.054l2.728.268s3.168-1.518 3.608-2.857c.44-1.339-2.816-4.821-4.048-4.375-1.232.446-2.288 6.964-2.288 6.964zm2.552-.804l-1.32-.089s.528-3.214 1.144-3.393c.616-.268 2.2 1.429 1.936 2.143-.264.625-1.76 1.339-1.76 1.339z" id="Shape" fill="#191415"/><ellipse fill="#29ABE2" cx="6.488" cy="21.75" rx="3.696" ry="3.75"/><path fill="#fff" d="M9.304 20.411l-1.144-1.161-2.376 3.661-1.672-2.054-1.144 1.071 2.64 2.679v-.089.089z"/></g></svg>