<svg width="70" height="40" viewBox="0 0 70 40" xmlns="http://www.w3.org/2000/svg"><title>paypal</title><desc>Created with Sketch.</desc><g fill="none"><path d="M26.714 15.701h-3.806c-.26 0-.482.186-.523.44l-1.539 9.617c-.031.19.119.361.314.361h1.817c.26 0 .482-.186.523-.44l.415-2.594c.04-.254.262-.44.522-.44h1.205c2.507 0 3.954-1.195 4.331-3.565.17-1.036.007-1.851-.485-2.421-.541-.626-1.5-.957-2.774-.957zm.439 3.512c-.208 1.346-1.251 1.346-2.26 1.346h-.574l.403-2.513c.024-.152.157-.264.313-.264h.263c.687 0 1.335 0 1.67.386.2.23.261.573.185 1.045zM38.09 19.17h-1.822c-.155 0-.289.112-.313.264l-.081.502-.127-.182c-.395-.564-1.274-.753-2.152-.753-2.014 0-3.734 1.503-4.069 3.612-.174 1.052.073 2.058.679 2.759.555.645 1.35.914 2.295.914 1.623 0 2.522-1.028 2.522-1.028l-.081.499c-.031.191.119.362.313.362h1.642c.261 0 .481-.186.523-.44l.985-6.147c.031-.189-.117-.361-.312-.361zm-2.54 3.495c-.176 1.026-1.002 1.715-2.056 1.715-.529 0-.952-.167-1.224-.484-.269-.315-.372-.763-.286-1.262.164-1.017 1.004-1.729 2.042-1.729.517 0 .938.169 1.215.489.278.323.388.774.308 1.271zM47.795 19.17h-1.831c-.175 0-.339.086-.438.229l-2.526 3.667-1.071-3.523c-.067-.22-.274-.372-.507-.372h-1.8c-.219 0-.371.211-.301.413l2.017 5.834-1.896 2.638c-.149.208.001.494.259.494h1.829c.174 0 .336-.083.435-.224l6.091-8.665c.146-.207-.004-.491-.26-.491z" id="Shape" fill="#253B80"/><path d="M53.858 15.701h-3.806c-.26 0-.481.186-.522.44l-1.539 9.617c-.031.19.119.361.313.361h1.953c.181 0 .337-.131.365-.308l.437-2.726c.04-.254.262-.44.522-.44h1.204c2.507 0 3.954-1.195 4.332-3.565.171-1.036.007-1.851-.486-2.421-.54-.626-1.499-.957-2.773-.957zm.439 3.512c-.208 1.346-1.251 1.346-2.26 1.346h-.574l.403-2.513c.024-.152.156-.264.313-.264h.263c.687 0 1.335 0 1.67.386.2.23.26.573.184 1.045zM65.233 19.17h-1.821c-.156 0-.289.112-.313.264l-.081.502-.128-.182c-.395-.564-1.274-.753-2.152-.753-2.014 0-3.733 1.503-4.068 3.612-.174 1.052.073 2.058.678 2.759.556.645 1.35.914 2.295.914 1.623 0 2.522-1.028 2.522-1.028l-.081.499c-.031.191.119.362.314.362h1.641c.26 0 .481-.186.522-.44l.985-6.147c.03-.189-.119-.361-.314-.361zm-2.54 3.495c-.175 1.026-1.002 1.715-2.056 1.715-.528 0-.952-.167-1.224-.484-.269-.315-.371-.763-.286-1.262.165-1.017 1.004-1.729 2.042-1.729.518 0 .938.169 1.215.489.279.323.389.774.308 1.271zM67.382 15.965l-1.562 9.793c-.031.19.119.361.313.361h1.57c.261 0 .482-.186.523-.44l1.54-9.617c.031-.19-.119-.361-.313-.361h-1.758c-.155.001-.289.112-.313.264z" id="Shape" fill="#179BD7"/><path d="M5.043 27.988l.291-1.822-.648-.015h-3.096l2.151-13.443.06-.105.115-.042h5.22c1.733 0 2.929.355 3.553 1.057.293.329.479.673.569 1.051.095.397.096.871.004 1.45l-.007.042v.371l.293.163c.247.129.442.276.593.445.25.281.412.639.481 1.063.071.436.047.955-.068 1.542-.134.676-.349 1.264-.641 1.746-.268.444-.61.812-1.016 1.097-.387.271-.847.477-1.368.608-.504.129-1.079.195-1.709.195h-.406c-.29 0-.573.103-.794.288-.222.189-.369.446-.414.728l-.031.164-.514 3.211-.023.118-.032.069-.053.019h-2.508z" id="Shape" fill="#253B80"/><path d="M13.825 16.204l-.053.302c-.688 3.483-3.043 4.686-6.051 4.686h-1.531c-.368 0-.678.263-.735.621l-.784 4.9-.222 1.389c-.037.235.146.446.387.446h2.716c.322 0 .595-.23.645-.543l.027-.136.511-3.198.033-.175c.05-.314.324-.544.645-.544h.406c2.631 0 4.691-1.053 5.294-4.1.252-1.273.121-2.336-.544-3.083-.201-.225-.451-.412-.743-.565z" id="Shape" fill="#179BD7"/><path d="M13.105 15.922l-.325-.082-.344-.064c-.413-.066-.865-.097-1.35-.097h-4.091c-.101 0-.196.022-.282.063-.189.089-.329.265-.363.481l-.87 5.432-.025.158c.057-.358.367-.621.735-.621h1.531c3.008 0 5.363-1.204 6.051-4.686l.053-.302c-.174-.091-.363-.169-.566-.235l-.154-.048z" id="Shape" fill="#222D65"/><path d="M6.35 16.222c.034-.216.174-.392.363-.48.086-.041.181-.063.282-.063h4.091c.485 0 .937.031 1.35.097l.344.064.325.082.155.047c.203.066.392.145.566.235.205-1.287-.002-2.163-.708-2.957-.778-.874-2.184-1.248-3.981-1.248h-5.22c-.367 0-.681.263-.737.621l-2.174 13.581c-.043.269.167.511.442.511h3.222l.809-5.059.87-5.432z" fill="#253B80"/></g></svg>