<svg width="70" height="40" viewBox="0 0 70 40" xmlns="http://www.w3.org/2000/svg"><title>betaalplan</title><desc>Created with Sketch.</desc><g fill="none"><path d="M5.897 16.766c0-.766-.138-1.361-.416-1.783-.278-.422-.773-.632-1.484-.632l-.395.008-.453.014-.46.029-.402.05v5.707l.855.058c.317.019.602.029.855.029.722 0 1.219-.211 1.491-.633.273-.422.409-1.026.409-1.812v-1.035zm1.286 1.035c0 .538-.063 1.027-.19 1.467-.127.441-.322.815-.585 1.122-.263.306-.594.544-.994.711-.399.168-.872.252-1.418.252-.438 0-.881-.019-1.33-.058-.448-.038-.902-.1-1.36-.187-.137-.019-.221-.053-.255-.101-.034-.048-.051-.125-.051-.23v-10.064c0-.076.024-.141.073-.194.049-.053.112-.079.19-.079h.746c.078 0 .144.026.197.079.054.053.08.118.08.194v2.674c.283-.048.58-.084.892-.108.312-.023.585-.036.818-.036 1.062 0 1.859.305 2.391.913.53.609.796 1.478.796 2.609v1.035z" fill="#6D6F71"/><path d="M13.805 16.609c0-.815-.158-1.395-.475-1.74-.317-.345-.797-.517-1.44-.517-.634 0-1.118.182-1.455.546-.337.365-.504.935-.504 1.711v.129h3.873v-.129zm1.286.776c0 .211-.092.317-.277.317h-4.883v.201c0 .854.17 1.458.512 1.812.341.354.847.532 1.52.532.429 0 .884-.014 1.367-.043.483-.028.894-.067 1.235-.115h.073l.16.043c.049.029.073.082.073.159v.488c0 .096-.019.171-.058.223-.039.052-.117.088-.234.108-.419.077-.835.137-1.249.18-.414.043-.87.065-1.367.065-.419 0-.828-.055-1.228-.165-.4-.11-.752-.297-1.06-.56-.307-.264-.555-.616-.746-1.057-.19-.441-.284-.997-.284-1.668v-1.294c0-1.035.277-1.855.831-2.459.554-.603 1.356-.906 2.406-.906.535 0 1.002.079 1.401.238.398.158.731.383.998.675.267.292.47.647.606 1.063.137.418.204.88.204 1.388v.776z" fill="#6D6F71"/><path d="M20.427 21.281l-.483.051-.468.022c-.341 0-.635-.027-.884-.079-.249-.053-.453-.151-.614-.295-.16-.144-.283-.34-.365-.59-.083-.25-.124-.57-.124-.964v-5.018l-1.418-.158c-.185-.019-.278-.105-.278-.259v-.388c0-.172.092-.259.278-.259h1.418v-1.409c0-.163.088-.259.263-.287l.76-.115h.044c.059 0 .11.021.154.065.044.043.066.102.066.179v1.568h1.578c.078 0 .146.029.205.086.058.057.088.124.088.201v.489c0 .077-.03.144-.088.202-.059.057-.126.086-.205.086h-1.578v5.006c0 .392.059.641.175.746.117.105.322.158.614.158h.819c.204 0 .307.068.307.204v.511c0 .136-.088.219-.263.248" fill="#6D6F71"/><path d="M26.361 17.428h-1.081c-.439 0-.804.026-1.097.079-.292.052-.521.134-.687.245-.166.11-.283.254-.351.431s-.103.396-.103.654v.172c0 .517.117.865.351 1.042.234.177.565.266.994.266.341 0 .667-.048.98-.145.312-.095.643-.239.993-.431v-2.314zm1.286 3.537c0 .077-.029.144-.087.201-.059.058-.127.086-.205.086h-.672c-.078 0-.146-.028-.205-.086-.058-.057-.087-.124-.087-.201v-.317c-.351.202-.711.369-1.082.503-.371.134-.76.202-1.169.202-.312 0-.612-.036-.899-.108-.287-.072-.541-.199-.76-.381-.219-.182-.394-.422-.526-.719s-.197-.67-.197-1.122v-.172c0-.383.061-.721.183-1.014.122-.292.322-.536.6-.732.277-.197.641-.343 1.089-.438.448-.096.999-.145 1.652-.145h1.081v-.575c0-.604-.117-1.026-.35-1.265-.234-.24-.639-.36-1.214-.36-.478 0-.897.012-1.257.036-.36.023-.687.049-.979.079h-.073l-.183-.044c-.054-.029-.08-.091-.08-.186v-.503c0-.154.103-.245.307-.273.302-.048.631-.092.987-.129.355-.039.781-.058 1.279-.058 1.013 0 1.742.24 2.186.719.443.48.664 1.141.664 1.984v5.018z" fill="#6D6F71"/><path d="M33.948 17.428h-1.082c-.438 0-.804.026-1.096.079-.292.052-.522.134-.688.245-.166.11-.283.254-.35.431-.068.177-.102.396-.102.654v.172c0 .517.117.865.351 1.042.233.177.565.266.993.266.342 0 .668-.048.98-.145.312-.095.643-.239.994-.431v-2.314zm1.286 3.537c0 .077-.029.144-.088.201-.058.058-.126.086-.204.086h-.673c-.078 0-.146-.028-.204-.086-.059-.057-.088-.124-.088-.201v-.317c-.351.202-.711.369-1.081.503-.371.134-.76.202-1.17.202-.312 0-.611-.036-.898-.108-.288-.072-.541-.199-.76-.381-.22-.182-.395-.422-.526-.719s-.197-.67-.197-1.122v-.172c0-.383.061-.721.183-1.014.121-.292.321-.536.599-.732.279-.197.642-.343 1.089-.438.448-.096.999-.145 1.652-.145h1.082v-.575c0-.604-.117-1.026-.351-1.265-.234-.24-.638-.36-1.213-.36-.477 0-.897.012-1.257.036-.36.023-.687.049-.98.079h-.073l-.183-.044c-.054-.029-.081-.091-.081-.186v-.503c0-.154.102-.245.307-.273.302-.048.631-.092.987-.129.356-.039.782-.058 1.279-.058 1.013 0 1.742.24 2.185.719.443.48.665 1.141.665 1.984v5.018z" fill="#6D6F71"/><path d="M38.581 21.166c-.049.058-.112.086-.19.086h-.761c-.078 0-.141-.028-.19-.086-.049-.057-.073-.124-.073-.201v-10.251c0-.076.025-.141.073-.194.049-.053.112-.079.19-.079h.761c.078 0 .141.026.19.079.049.053.073.118.073.194v10.251c0 .077-.025.144-.073.201" fill="#6D6F71"/><path d="M45.539 16.588c0-.257-.02-.491-.058-.702-.039-.211-.108-.395-.205-.553-.097-.157-.229-.279-.395-.365-.166-.086-.38-.129-.643-.129-.243 0-.471.007-.68.022l-.518.05v4.472l.6.058c.224.019.424.029.599.029.263 0 .478-.045.643-.136.166-.091.297-.215.395-.373.097-.158.166-.344.205-.559.038-.215.058-.447.058-.695v-1.118zm2.368 1.113c0 1.131-.302 2.027-.906 2.688-.605.661-1.526.992-2.763.992-.146 0-.329-.009-.548-.029l-.65-.072v2.488c0 .076-.029.144-.088.202-.059.057-.126.086-.205.086h-1.768c-.079 0-.149-.029-.212-.086-.064-.057-.096-.125-.096-.202v-10.078c0-.115.026-.202.08-.259.054-.058.178-.11.373-.159.418-.105.901-.194 1.447-.265.546-.072 1.101-.108 1.666-.108 1.189 0 2.098.321 2.726.963.629.643.943 1.548.943 2.718v1.122z" fill="#F63440"/><path d="M51.686 21.159c-.054.062-.119.093-.197.093h-1.783c-.078 0-.149-.031-.212-.093-.064-.062-.096-.132-.096-.208v-10.438c0-.077.031-.145.096-.202.063-.058.133-.086.212-.086h1.783c.078 0 .143.029.197.086.053.057.08.124.08.202v10.438c0 .076-.027.146-.08.208" fill="#F63440"/><path d="M57.657 17.73h-.833c-.253 0-.463.022-.629.065-.165.043-.297.108-.394.194-.098.086-.166.197-.205.331-.039.134-.058.287-.058.459v.129c0 .308.075.503.226.59.15.086.383.129.694.129.224 0 .436-.031.635-.093.2-.062.388-.137.563-.223v-1.582zm2.324 3.235c0 .077-.029.144-.087.201-.059.058-.127.086-.205.086h-1.637c-.078 0-.146-.028-.205-.086-.058-.057-.087-.124-.087-.201v-.23c-.283.202-.582.36-.899.475-.317.114-.694.172-1.133.172-.322 0-.631-.041-.928-.122-.297-.081-.563-.218-.797-.41-.233-.191-.421-.446-.562-.762-.142-.317-.213-.709-.213-1.179v-.129c0-.843.285-1.459.855-1.847.571-.388 1.484-.582 2.741-.582h.79v-.517c0-.412-.097-.68-.292-.805-.196-.125-.463-.187-.805-.187l-.709.008-.687.021-.593.036-.438.036h-.073c-.079 0-.142-.019-.191-.058-.049-.038-.073-.105-.073-.201v-1.165c0-.163.093-.268.278-.316.272-.067.641-.134 1.104-.202.463-.066.938-.101 1.425-.101.527 0 1.002.055 1.426.165.424.111.782.283 1.074.517.293.235.519.537.68.906.161.37.241.818.241 1.345v5.133z" fill="#F63440"/><path d="M68.832 21.159c-.063.062-.134.093-.212.093h-1.769c-.078 0-.146-.031-.204-.093-.059-.062-.088-.131-.088-.208v-4.777c0-.249-.014-.459-.044-.631-.029-.172-.084-.311-.162-.416-.078-.105-.187-.18-.329-.223-.141-.043-.324-.065-.548-.065-.214 0-.433.043-.658.129-.224.086-.463.196-.716.329v5.653c0 .076-.03.145-.088.208-.059.062-.126.093-.205.093h-1.769c-.078 0-.148-.031-.211-.093-.064-.062-.096-.132-.096-.208v-7.649c0-.077.029-.145.088-.202.058-.057.126-.086.205-.086h1.637c.078 0 .146.029.205.087.058.058.087.126.087.203v.348c.4-.28.78-.475 1.141-.586.36-.111.775-.167 1.242-.167.527 0 .957.086 1.294.259.337.173.6.406.789.698.19.292.322.637.395 1.035.073.398.11.822.11 1.272v4.788c0 .076-.032.146-.096.208" fill="#F63440"/><path d="M2.823 27.276c0-.285-.052-.506-.155-.663-.103-.157-.287-.236-.552-.236l-.147.003-.169.006-.172.011-.149.018v2.125l.319.021.319.011c.268 0 .453-.079.554-.235.102-.157.153-.382.153-.675v-.386zm.478.386c0 .2-.024.381-.071.545-.047.165-.12.303-.218.418-.097.115-.221.202-.37.265-.149.062-.325.093-.527.093l-.495-.021c-.167-.014-.336-.038-.506-.07l-.096-.038-.019-.086v-3.745l.027-.072.07-.029h.278l.073.029.03.072v.995l.332-.04.305-.014c.394 0 .692.114.889.339.197.227.296.55.296.971v.386z" fill="#6D6F71"/><path d="M6.853 27.218c0-.303-.059-.519-.177-.647-.118-.129-.296-.192-.535-.192-.236 0-.417.067-.542.203-.126.136-.188.348-.188.637v.049h1.442v-.049zm.478.289c0 .079-.034.118-.103.118h-1.817v.074c0 .317.063.543.19.675s.316.198.565.198l.509-.016.459-.043h.028l.06.016.027.059v.181l-.021.083-.088.04-.465.067c-.155.015-.324.024-.509.024-.155 0-.308-.02-.457-.062-.149-.041-.28-.111-.394-.209-.114-.097-.207-.229-.277-.393-.071-.164-.106-.371-.106-.621v-.481c0-.385.103-.69.309-.915.206-.224.505-.337.896-.337.198 0 .372.029.52.088.149.059.272.143.372.251.099.109.174.241.225.397.051.155.075.327.075.516v.289z" fill="#6D6F71"/><path d="M10.405 28.957l-.18.018-.174.008-.329-.029c-.093-.019-.169-.056-.229-.109-.06-.054-.105-.127-.136-.22-.031-.092-.046-.212-.046-.358v-1.868l-.528-.059c-.069-.007-.103-.04-.103-.097v-.145c0-.064.034-.096.103-.096h.528v-.525c0-.061.032-.096.097-.107l.284-.043h.016l.057.025.024.066v.584h.588l.076.032.033.075v.182l-.033.075-.076.032h-.588v1.863c0 .145.022.238.066.277.044.039.12.059.228.059h.305c.076 0 .115.025.115.075v.19c0 .051-.033.082-.098.092" fill="#6D6F71"/><path d="M13.702 27.523h-.403c-.163 0-.299.01-.408.029-.108.02-.194.051-.255.092-.061.04-.105.094-.131.16l-.038.244v.064c0 .192.044.322.131.388.087.065.21.099.37.099.127 0 .249-.018.365-.054.116-.036.239-.089.37-.161v-.862zm.478 1.316l-.032.075-.076.031h-.25l-.076-.031-.033-.075v-.118c-.131.075-.264.138-.402.187-.138.049-.283.075-.435.075-.116 0-.228-.014-.335-.04-.107-.026-.202-.073-.283-.142-.082-.067-.147-.156-.196-.267-.049-.111-.073-.249-.073-.417v-.065c0-.143.023-.269.068-.377.045-.109.12-.2.223-.273.103-.073.238-.128.406-.163.167-.035.372-.054.614-.054h.403v-.214c0-.224-.044-.381-.131-.47-.087-.089-.237-.134-.452-.134l-.468.014-.364.029h-.027l-.068-.017-.03-.069v-.187c0-.057.038-.092.114-.102l.367-.049c.132-.014.291-.021.476-.021.377 0 .648.089.813.267.166.179.248.425.248.738v1.868z" fill="#6D6F71"/><path d="M16.517 28.914l-.07.032h-.284l-.071-.032-.027-.075v-3.815l.027-.072.071-.029h.284l.07.029.027.072v3.815l-.027.075" fill="#6D6F71"/><path d="M20.246 27.218c0-.303-.059-.519-.177-.647-.118-.129-.297-.192-.536-.192-.236 0-.416.067-.541.203-.126.136-.188.348-.188.637v.049h1.442v-.049zm.478.289c0 .079-.034.118-.103.118h-1.817v.074c0 .317.063.543.19.675.126.132.315.198.565.198l.509-.016.459-.043h.027l.06.016.027.059v.181l-.022.083-.087.04-.465.067c-.155.015-.324.024-.509.024-.155 0-.308-.02-.457-.062-.149-.041-.28-.111-.394-.209-.114-.097-.207-.229-.277-.393-.071-.164-.107-.371-.107-.621v-.481c0-.385.103-.69.31-.915.206-.224.505-.337.895-.337.199 0 .372.029.521.088.148.059.272.143.372.251.099.109.174.241.225.397.051.155.076.327.076.516v.289z" fill="#6D6F71"/><path d="M24.729 28.914l-.076.032h-.262l-.076-.032-.033-.075v-1.757c0-.135-.011-.248-.035-.339-.024-.091-.06-.163-.108-.217-.049-.053-.112-.092-.188-.114l-.267-.035c-.116 0-.236.02-.359.059l-.376.149v2.253l-.033.075-.076.032h-.267l-.073-.032-.03-.075v-2.729l.03-.075.073-.033h.272l.073.033.03.076v.103c.152-.083.294-.145.424-.187.131-.041.278-.062.441-.062.33 0 .57.096.721.289.15.192.225.467.225.824v1.76l-.033.075" fill="#6D6F71"/><path d="M29.562 28.839l-.033.075-.077.031h-.263l-.077-.031-.033-.075v-2.729l.033-.075.077-.033h.263l.077.033.033.075v2.729z" fill="#6D6F71"/><path d="M29.573 25.426l-.033.075-.077.032h-.279l-.076-.032-.033-.075v-.429l.033-.075.076-.032h.279l.077.032.033.075v.429z" id="Path" fill="#6D6F71"/><path d="M33.71 28.914l-.076.032h-.261l-.076-.032-.032-.075v-1.757c0-.135-.012-.248-.035-.339-.024-.091-.061-.163-.109-.217-.049-.053-.111-.092-.188-.114l-.267-.035c-.116 0-.236.02-.359.059l-.376.149v2.253l-.033.075-.076.032h-.267l-.073-.032-.03-.075v-2.729l.03-.075.073-.033h.272l.073.033.029.076v.103c.153-.083.294-.145.424-.187.131-.041.278-.062.441-.062.33 0 .57.096.721.289.15.192.225.467.225.824v1.76l-.032.075" fill="#6D6F71"/><path d="M39.492 28.957l-.179.018-.173.008-.33-.029c-.092-.019-.169-.056-.229-.109-.059-.054-.105-.127-.135-.22-.032-.092-.047-.212-.047-.358v-1.868l-.527-.059c-.069-.007-.104-.04-.104-.097v-.145c0-.064.035-.096.104-.096h.527v-.525c0-.061.032-.096.098-.107l.283-.043h.016l.057.025.025.066v.584h.588l.076.032.032.075v.182l-.032.075-.076.032h-.588v1.863c0 .145.021.238.065.277.044.039.12.059.228.059h.305c.076 0 .114.025.114.075v.19c0 .051-.032.082-.098.092" fill="#6D6F71"/><path d="M43.006 27.218c0-.303-.059-.519-.177-.647-.118-.129-.296-.192-.537-.192-.236 0-.416.067-.541.203-.126.136-.188.348-.188.637v.049h1.442v-.049zm.478.289c0 .079-.034.118-.103.118h-1.818v.074c0 .317.063.543.191.675.126.132.315.198.565.198l.509-.016.459-.043h.027l.06.016.027.059v.181l-.022.083-.087.04-.465.067c-.155.015-.324.024-.509.024-.155 0-.308-.02-.457-.062-.149-.041-.28-.111-.394-.209-.115-.097-.207-.229-.278-.393-.071-.164-.106-.371-.106-.621v-.481c0-.385.103-.69.309-.915.206-.224.504-.337.895-.337.199 0 .373.029.521.088.148.059.272.143.372.251.099.109.174.241.225.397.051.155.076.327.076.516v.289z" fill="#6D6F71"/><path d="M46.46 26.377c-.126 0-.249.017-.367.051-.118.034-.246.091-.384.173v2.237l-.032.075-.076.032h-.266l-.073-.032-.03-.075v-2.729l.03-.075.073-.033h.255l.073.033.03.076v.114c.138-.094.27-.161.395-.201.125-.04.249-.06.372-.06.076 0 .115.033.115.097v.223c0 .061-.038.091-.115.091" fill="#6D6F71"/><path d="M51.748 28.914l-.076.032h-.261l-.076-.032-.032-.075v-1.894c0-.111-.013-.204-.038-.279l-.103-.176-.157-.091-.196-.027c-.098 0-.202.014-.313.043l-.324.102c.032.118.049.256.049.417v1.905l-.026.075-.071.032h-.289l-.068-.032-.025-.075v-1.905l-.025-.286-.079-.171-.133-.083-.183-.021c-.097 0-.203.02-.318.061l-.346.147v2.258l-.027.075-.07.032h-.289l-.068-.032-.024-.075v-2.729l.03-.075.073-.033h.272l.073.033.03.075v.102c.109-.068.231-.126.365-.176.134-.051.277-.075.43-.075.116 0 .219.017.307.05.089.034.168.09.237.169.153-.071.306-.126.46-.164.155-.037.302-.055.443-.055.124 0 .239.016.346.048.107.032.2.086.28.163.079.077.143.178.188.305.045.127.067.283.067.469v1.894l-.032.075" fill="#6D6F71"/><path d="M54.15 28.839l-.033.075-.077.031h-.263l-.077-.031-.032-.075v-2.729l.032-.075.077-.033h.263l.077.033.033.075v2.729z" fill="#6D6F71"/><path d="M54.161 25.426l-.033.075-.077.032h-.279l-.077-.032-.033-.075v-.429l.033-.075.077-.032h.279l.077.032.033.075v.429z" fill="#6D6F71"/><path d="M56.589 25.431l-.032.072-.076.029h-.277l-.076-.029-.032-.072v-.434l.032-.075.076-.032h.277l.076.032.032.075v.434zm-.01 3.858c0 .139-.015.254-.046.345-.031.091-.075.164-.131.219-.056.055-.127.093-.213.115l-.29.032-.148-.005-.146-.016c-.066-.011-.098-.039-.098-.086v-.198c0-.049.038-.075.114-.075h.223c.105 0 .174-.021.207-.064s.05-.133.05-.268v-3.178l.026-.075.071-.033h.283l.071.033.027.075v3.178z" fill="#6D6F71"/><path d="M60.729 28.914l-.076.032h-.261l-.076-.032-.032-.075v-1.757c0-.135-.012-.248-.035-.339-.024-.091-.061-.163-.109-.217-.049-.053-.111-.092-.188-.114l-.266-.035c-.117 0-.236.02-.359.059l-.376.149v2.253l-.032.075-.076.032h-.267l-.073-.032-.03-.075v-2.729l.03-.075.073-.033h.272l.073.033.029.076v.103c.153-.083.294-.145.425-.187.131-.041.277-.062.441-.062.331 0 .571.096.721.289.15.192.225.467.225.824v1.76l-.032.075" fill="#6D6F71"/><path d="M64.412 27.218c0-.303-.059-.519-.177-.647-.118-.129-.296-.192-.535-.192-.236 0-.416.067-.542.203-.126.136-.188.348-.188.637v.049h1.442v-.049zm.479.289c0 .079-.035.118-.103.118h-1.817v.074c0 .317.063.543.19.675s.316.198.566.198l.508-.016.46-.043h.027l.06.016.027.059v.181l-.021.083-.087.04-.466.067c-.155.015-.324.024-.508.024-.156 0-.308-.02-.457-.062-.149-.041-.28-.111-.395-.209-.114-.097-.207-.229-.277-.393-.071-.164-.106-.371-.106-.621v-.481c0-.385.103-.69.309-.915.206-.224.505-.337.896-.337.199 0 .372.029.521.088.148.059.272.143.371.251.099.109.174.241.225.397.051.155.076.327.076.516v.289z" fill="#6D6F71"/><path d="M68.894 28.914l-.076.032h-.26l-.077-.032-.032-.075v-1.757c0-.135-.012-.248-.035-.339-.024-.091-.06-.163-.108-.217-.049-.053-.112-.092-.188-.114l-.267-.035c-.116 0-.236.02-.359.059l-.375.149v2.253l-.033.075-.077.032h-.267l-.073-.032-.029-.075v-2.729l.029-.075.073-.033h.272l.073.033.03.076v.103c.152-.083.294-.145.424-.187.13-.041.277-.062.44-.062.331 0 .57.096.721.289.151.192.225.467.225.824v1.76l-.032.075" fill="#6D6F71"/></g></svg>