<svg width="70" height="40" viewBox="0 0 70 40" xmlns="http://www.w3.org/2000/svg"><title>webshopgiftcard</title><desc>Created with Sketch.</desc><g fill="none"><g fill="#1A1919"><path d="M39.369 20.304c0 .127-.032.15-.145.15h-3.165l-.124-.127v-7.022l.124-.127h3.196c.113 0 .133.032.133.064l-.031.137-.143.445-.155.097h-2.283v2.36h2.015c.114 0 .134.019.134.136v.468c0 .116-.02.136-.134.136h-2.015v2.688h2.467l.124.118v.477"/><path d="M42.801 19.708c.668 0 1.336-.244 1.336-1.296 0-1.029-.678-1.317-1.388-1.317h-.946v2.613h.998zm-.267-3.323c.596 0 1.357-.14 1.357-1.382 0-.946-.534-1.084-1.142-1.084h-.946v2.466h.731zm.235-3.209c.772 0 2.047.086 2.047 1.731 0 1.117-.679 1.55-1.018 1.731.524.161 1.265.512 1.265 1.806 0 .882-.433 1.383-.679 1.606-.402.351-.976.404-1.799.404h-1.501l-.123-.127v-7.022l.123-.127h1.685z"/><path d="M49.977 14.083l-.118.132-.137-.051c-.196-.101-.726-.375-1.304-.375-.618 0-1.098.334-1.098 1.044 0 1.115 1.353 1.317 2.177 2.017.549.466.834.973.834 1.672 0 1.297-.932 2.077-2.187 2.077-.951 0-1.716-.456-1.863-.527l-.088-.122.039-.122.137-.355.108-.132.147.051c.206.091.834.446 1.55.446.775 0 1.226-.497 1.226-1.216 0-1.763-3.001-1.49-3.001-3.699 0-1.216.981-1.895 2.05-1.895.824 0 1.481.385 1.618.456l.088.111-.039.132-.137.355"/><path d="M52.782 17.043v3.283l-.124.127h-.595l-.123-.127v-7.022l.123-.127h.595l.124.127v2.995h2.643v-2.995l.123-.127h.597l.122.127v7.022l-.122.127h-.597l-.123-.127v-3.283h-2.643"/><path d="M61.57 16.809c0-1.844-.245-3.07-1.393-3.07-1.147 0-1.402 1.226-1.402 3.07 0 1.854.235 3.081 1.402 3.081 1.157 0 1.393-1.226 1.393-3.081m-1.393 3.79c-1.657 0-2.324-1.53-2.324-3.79 0-2.27.677-3.78 2.324-3.78 1.628 0 2.315 1.52 2.315 3.78s-.677 3.79-2.315 3.79"/><path d="M65.785 16.638c.762 0 1.45-.2 1.45-1.506 0-1.179-.741-1.211-1.326-1.211h-.792v2.718h.668zm-.668 3.689l-.123.127h-.596l-.123-.127v-7.022l.123-.127h1.593c.791 0 2.088.053 2.088 1.933 0 1.794-1.142 2.273-2.222 2.273h-.74v2.943z"/><path d="M33.004 28.102c0 .247 0 .323-.129.397-.34.2-.93.352-1.49.352-1.629 0-2.208-1.483-2.208-3.449 0-1.805.608-3.327 2.225-3.327.847 0 1.527.449 1.527.581l-.045.123-.138.267-.12.132c-.092 0-.47-.464-1.204-.464-1.012 0-1.417.987-1.417 2.592 0 1.76.396 2.909 1.397 2.909.423 0 .672-.097.847-.18v-1.996h-.734l-.112-.113v-.391l.112-.115h1.379l.11.115v2.566"/><path d="M37.125 28.605l-.111.115h-2.427l-.111-.115v-.39l.111-.114h.837v-5.274h-.837l-.111-.114v-.39l.111-.115h2.427l.111.115v.39l-.111.114h-.837v5.274h.837l.111.114v.39"/><path d="M39.59 28.585c0 .115-.027.135-.13.135h-.514l-.111-.117v-6.278l.111-.115h2.861c.101 0 .119.029.119.066l-.027.115-.129.4-.047.066-.092.017h-2.041v2.111h1.801c.102 0 .12.018.12.124v.415c0 .105-.017.125-.12.125h-1.801v2.935"/><path d="M44.786 22.874v5.731l-.11.115h-.533l-.111-.115v-5.731h-1.369l-.112-.114v-.427c0-.066.028-.124.13-.124h3.605l.11.075-.036.125-.13.36-.146.104h-1.298"/><path d="M50.561 27.987l.056.132c0 .154-.663.735-1.471.735-1.564 0-2.116-1.485-2.116-3.451 0-1.805.451-3.327 2.052-3.327.809 0 1.471.581 1.471.733l-.056.134-.193.254-.092.078c-.065 0-.58-.561-1.114-.561-.992 0-1.241.978-1.241 2.592 0 1.76.368 2.909 1.307 2.909.533 0 1.048-.561 1.113-.561l.092.075.193.257"/><path d="M54.019 24.016c-.073-.295-.165-.636-.21-.904h-.019c-.037.229-.131.646-.194.904l-.56 2.1h1.535l-.552-2.1zm2.061 4.483l.046.163-.129.057h-.57c-.111 0-.147-.038-.166-.106l-.515-1.834h-1.885l-.469 1.834c-.019.068-.056.106-.166.106h-.57l-.129-.057.046-.163 1.839-6.184c.027-.095.036-.106.137-.106h.544c.073 0 .1 0 .137.106l1.848 6.184z"/><path d="M31.415 13.131l-.002-.005-.004.003-.045-.003h-.661l-.026.123v.005l-.5 2.126-.908 3.979-1.417-6.11c-.018-.079-.055-.123-.164-.123h-.563l-.127.067.045.19 1.817 7.187c.027.11.036.123.136.123h.537c.072 0 .099 0 .136-.123l1.415-5.573 1.409 5.573c.027.11.036.123.136.123h.537c.072 0 .099 0 .136-.123l1.825-7.187.045-.19-.127-.067h-.563c-.11 0-.145.044-.164.123l-.509 2.132-.908 3.979-1.417-6.11c-.015-.064-.014-.105-.071-.118z"/><path d="M58.996 25.137c.68 0 1.297-.162 1.297-1.179 0-1.055-.663-1.084-1.187-1.084h-.708v2.263h.598zm2.364 3.431l.036.104-.101.065-.58.115-.136-.077-1.519-3.02h-.661v2.85l-.11.115h-.534l-.11-.115v-6.283l.11-.113h1.426c.707 0 1.867.048 1.867 1.728 0 1.047-.709 1.577-1.214 1.749l1.527 2.881z"/><path d="M64.292 28.053c1.315 0 1.593-1.064 1.593-2.688 0-2.082-.581-2.492-1.656-2.492h-.506v5.179h.569zm-.054-5.844c1.278 0 2.475.315 2.475 3.193 0 2.261-.7 3.317-2.575 3.317h-1.058l-.111-.115v-6.28l.111-.115h1.158z"/></g><g><path d="M9.426 17.622l-.437-4.935-.014-.148-3.162-2.2c-.145-.082-.331-.021-.416.135l-4.238 7.752c-.085.156-.037.349.107.432l2.938 1.332 1.599-.725 3.624-1.643" fill="#FFE059"/><path d="M22.274 20.047l3.064-1.389c.144-.082.191-.275.106-.432l-4.238-7.752c-.086-.156-.272-.216-.416-.135l-3.162 2.2-.461 5.192 5.107 2.316" fill="#3B99C8"/><path d="M8.987 27.432l-.355 4.01c0 .168.142.304.318.304h8.704c.176 0 .318-.136.318-.304l-.344-3.888-4.408-3.066-4.233 2.944" fill="#BA4C8D"/><path d="M25.337 21.436l-3.063-1.389-.284.129-4.823 2.187.461 5.192 3.162 2.2c.143.082.33.022.416-.135l4.238-7.752c.085-.156.037-.349-.107-.431" fill="#374E87"/><path d="M8.987 27.432l.45-5.07-5.233-2.372-2.938 1.332c-.145.082-.192.275-.107.431l4.238 7.753c.085.156.272.217.416.134l3.173-2.207" fill="#E57448"/><path d="M8.976 12.54l4.325 3.008 4.326-3.008.344-3.888c0-.169-.143-.304-.318-.304h-8.704c-.176 0-.318.136-.318.304l.344 3.888" fill="#67B545"/></g></g></svg>