<svg width="70" height="40" viewBox="0 0 70 40" xmlns="http://www.w3.org/2000/svg"><title>belfius</title><desc>Created with Sketch.</desc><g fill="none"><path d="M7.396 11.618c-1.469 0-2.941.008-4.41.024-1.617.017-2.65 1.117-2.656 2.751-.011 2.915-.011 5.837 0 8.755.007 1.68 1.052 2.715 2.727 2.723 1.782.008 3.561.004 5.34.004 1.84 0 3.684-.016 5.525.008.427.006.562-.101.56-.548-.018-3.65-.003-7.298-.016-10.946 0-1.636-1.034-2.732-2.648-2.748-1.475-.015-2.938-.024-4.414-.024l-.007.001zm.008 4.139c.889 0 1.776.003 2.664.008.799.005 1.145.319 1.151.988.006.669-.4 1.028-1.19 1.036-.888.008-1.777 0-2.663 0h-.004c-.868 0-1.738.006-2.605-.004-.752-.01-1.143-.367-1.147-1.012-.004-.673.345-1.003 1.127-1.008.888-.005 1.778-.007 2.668-.007zm-.008 3.945c.901 0 1.8-.001 2.7.004.72.004 1.116.401 1.104 1.06-.011.625-.386.974-1.104.984-.909.013-1.821.004-2.732.004h-.004c-.889 0-1.779.009-2.669-.004-.719-.011-1.093-.36-1.104-.988-.012-.659.384-1.052 1.107-1.055.901-.004 1.8-.004 2.7-.004z" id="Shape" fill="#C91741"/><path d="M21.281 11.661l-1.549.008c-.919.007-1.232.321-1.234 1.238-.004 1.956 0 3.915 0 5.874v.004c0 1.998-.008 3.998 0 5.997.003.794.308 1.102 1.088 1.111l3.29.008c1.83.023 3.176-.825 3.898-2.465.742-1.685.452-3.299-.847-4.664-.181-.189-.27-.298-.051-.548 1.103-1.263 1.343-2.721.674-4.234-.697-1.578-2.005-2.319-3.717-2.325l-1.553-.005zm-.403 1.946c.703.023 1.406-.017 2.109.02 1.137.06 1.931.899 1.907 1.964-.025 1.148-.799 1.892-1.998 1.909-.662.009-1.326-.016-1.987.012-.363.015-.467-.116-.449-.464.026-.5.008-1 .008-1.5s.014-1.001-.004-1.5c-.011-.311.073-.452.414-.441v-.001h.001zm-.02 5.89c.743.017 1.486-.025 2.227.02 1.196.071 2.118 1.046 2.117 2.179-.001 1.118-.88 2.081-2.057 2.174-.759.06-1.524.016-2.285.036-.295.008-.402-.099-.394-.397.016-.602.004-1.203.004-1.806s.011-1.207-.004-1.81c-.008-.296.098-.403.394-.397h-.002zM31.925 15.303c-1.846.038-3.743 1.683-3.622 3.965.05.936.03 1.877 0 2.814-.045 1.394.552 2.442 1.636 3.25 1.555 1.16 4.194.879 5.317-.564.431-.554.424-1.016-.02-1.44-.436-.416-.929-.389-1.423.076-.762.717-1.622.877-2.436.456-.863-.446-1.205-1.159-1.123-2.23.026-.341.197-.351.445-.349.662.006 1.323 0 1.987 0h1.119c1.981 0 2.154-.181 2.061-2.179-.104-2.236-1.778-3.843-3.942-3.798zm.197 1.996c.944.016 1.677.705 1.742 1.603.022.304-.075.411-.374.401-.474-.016-.951-.004-1.426-.004-.454 0-.91-.015-1.364.004-.318.013-.44-.075-.406-.425.091-.932.842-1.596 1.829-1.58v.001zM59.723 19.563c0 .938.033 1.877-.008 2.812-.068 1.55-.814 2.719-2.213 3.346-1.467.658-2.875.436-4.098-.651-.764-.679-1.195-1.549-1.208-2.578-.025-2-.02-4-.009-6.002.003-.617.39-1.008.942-1.022.57-.015.987.392.992 1.036.013 1.875-.011 3.751.011 5.627.017 1.392 1.149 2.258 2.37 1.853.788-.261 1.211-.848 1.217-1.755.011-1.771.002-3.542.005-5.314.001-.208-.001-.419.037-.622.103-.558.487-.834 1.013-.812.526.022.92.32.935.893.027 1.062.008 2.125.008 3.187h.006v.001zM44.135 21.44c0 1.104.003 2.208-.001 3.312-.002.775-.324 1.139-.991 1.136-.643-.003-.984-.394-.986-1.162-.005-2.229-.016-4.458.009-6.685.005-.459-.097-.608-.573-.587-.757.033-1.169-.348-1.171-.972-.002-.6.45-1.04 1.175-.984.713.056.575-.394.555-.778-.136-2.532 2.161-3.629 3.987-3.129.734.201 1.195.649 1.244 1.223.069.802-.54 1.256-1.284.93-.468-.205-.922-.363-1.428-.154-.432.179-.791 1.455-.503 1.815.092.116.228.072.345.074l1.489.003c.777.009 1.153.333 1.158.986.006.686-.332.989-1.125.998-.497.005-.994.02-1.489-.006-.325-.017-.425.086-.419.418.02 1.187.008 2.375.008 3.563v-.002zM64.539 15.287c.863.036 1.808.48 2.55 1.345.381.444.378 1.131.004 1.466-.475.427-1.036.415-1.469-.113-.492-.6-1.09-.791-1.819-.656-.398.073-.693.297-.784.706-.088.401.134.669.454.875.455.294.952.496 1.457.681.468.171.91.39 1.337.647 1.083.654 1.568 1.617 1.475 2.878-.092 1.253-.8 2.073-1.887 2.57-1.461.669-3.386.357-4.409-.669-.531-.532-.62-1.102-.241-1.549.441-.52 1.011-.514 1.558.017.69.67 1.762.781 2.495.259.718-.511.723-1.299-.002-1.792-.569-.387-1.224-.592-1.852-.855-1.052-.442-2.018-.978-2.295-2.242-.428-1.95 1.01-3.584 3.427-3.568zM39.319 18.781c.001 1.978.007 3.957-.002 5.935-.004.806-.367 1.183-1.054 1.144-.563-.032-.885-.331-.886-.906-.009-4.123-.008-8.245-.002-12.37.001-.565.382-.928.931-.943.578-.017 1.002.378 1.006 1.018.015 2.041.005 4.082.006 6.123zM50.349 20.658c0 1.355.004 2.709-.002 4.063-.003.805-.304 1.156-.968 1.157-.659.001-.983-.358-.985-1.155-.008-2.688-.007-5.377-.001-8.062.002-.751.377-1.184.983-1.185.614-.001.968.424.971 1.183.005 1.333.002 2.667.002 4.001v-.002z" id="Shape" fill="#2D3C49"/><path d="M50.349 12.888c.002 1.097-.354 1.522-1.141 1.425-.668-.082-.976-.783-.801-1.826.106-.631.606-.969 1.228-.811.671.172.749.694.714 1.211z" fill="#2E3D4A"/></g></svg>