<svg width="70" height="40" viewBox="0 0 70 40" xmlns="http://www.w3.org/2000/svg"><title>sofort-en</title><desc>Created with Sketch.</desc><g fill="none"><path d="M57.68 10.402c.239.179.446.382.618.616.44.598.609 1.309.508 2.124h2.253l-3.396 8.802h3.393l3.397-8.802h4.359l1.058-2.739h-12.189zM57.51 11.534c-.558-.758-1.694-1.13-3.472-1.132h-4.118l-4.454 11.539h3.783l1.62-4.062c.079.167 1.034 4.062 1.034 4.062h3.977s-.724-2.862-1.256-4.018c-.137-.297-.28-.63-.47-.909 1.123-.394 2.751-1.239 3.425-2.952.415-1.053.391-1.904-.07-2.529zm-3.292 2.549c-.363.922-1.016 1.493-2.256 1.493h-.005l-.642-.001 1.097-2.79h.625c1.141 0 1.568.315 1.181 1.298zM19.492 10.396h-7.014c-1.106 0-2.18 0-3.143.461-.963.461-1.812 1.383-2.467 3.227-.141.397-.216.738-.226 1.034-.01.297.045.55.164.77.147.268.386.521.684.733.299.213.656.386 1.041.496l.462.124.711.197c.106.031.223.07.328.13.106.059.2.139.26.249.039.073.06.153.062.238.003.086-.013.179-.049.276-.089.251-.226.412-.485.511-.258.098-.64.13-1.218.134h-7.217l-1.141 2.957h7.726c.727 0 2.056 0 3.334-.512 1.277-.512 2.502-1.535 3.021-3.582.195-.769.135-1.396-.185-1.888-.321-.493-.9-.85-1.744-1.078l-.412-.112-.608-.164c-.216-.058-.382-.176-.48-.326-.098-.15-.127-.332-.071-.518.058-.193.198-.347.401-.454.203-.106.47-.164.782-.164h4.491l.092-.133c.82-1.094 1.813-1.98 2.901-2.606zM26.384 11.477c-.611-.825-1.657-1.245-3.113-1.246-.952 0-1.876.206-2.743.592-1.239.553-2.362 1.476-3.279 2.701-.596.795-1.106 1.716-1.505 2.747-.753 1.945-.745 3.523.026 4.563.436.588 1.344 1.29 3.188 1.292h.007c3.361 0 5.87-2.078 7.458-6.175.42-1.085.974-3.108-.038-4.473zm-3.598 4.634c-1.049 2.707-1.809 3.388-2.955 3.388h-.002c-1.116-.001-1.507-.667-.463-3.36.78-2.011 1.789-3.297 3.011-3.297 1.162.001 1.428.637.408 3.27zM39.814 10.396h-7.149c-1.998 0-3.486.954-4.189 2.739l-3.395 8.799h3.719l1.745-4.523 3.287.002.935-2.422-3.276-.002.528-1.403c.11-.251.373-.451.757-.451l3.876.001.093-.133c.82-1.095 1.982-1.981 3.069-2.606zM46.663 11.477c-.612-.825-1.657-1.245-3.114-1.246-.951 0-1.876.206-2.742.592-1.239.553-2.362 1.476-3.28 2.701-.596.795-1.106 1.716-1.505 2.747-.754 1.945-.744 3.523.026 4.563.436.588 1.343 1.29 3.189 1.292h.005c3.362 0 5.871-2.078 7.458-6.175.422-1.085.974-3.108-.037-4.473zm-3.598 4.634c-1.048 2.707-1.809 3.388-2.954 3.388h-.002c-1.117-.001-1.506-.667-.463-3.36.779-2.011 1.79-3.297 3.011-3.297h.002c1.161.001 1.428.637.407 3.27z" id="Shape" fill="#EE7F00"/><path d="M5.204 28.773c-.079.204-.18.389-.303.554-.123.165-.262.311-.415.438-.154.127-.322.236-.502.328-.181.092-.37.167-.569.226-.197.059-.402.102-.611.13-.21.028-.436.042-.681.042h-1.615c-.103 0-.179-.029-.227-.086-.048-.058-.047-.151.003-.281l1.928-4.995c.05-.13.121-.224.214-.281.093-.057.191-.086.294-.086h1.526c.372 0 .676.029.912.088.235.059.419.148.549.268.131.119.208.271.231.454.023.183-.013.399-.109.647-.053.139-.123.269-.208.392-.085.123-.182.234-.293.334-.111.101-.233.189-.367.266-.134.077-.278.139-.431.186.161.029.299.081.417.155.116.074.207.169.27.286.063.117.096.254.098.41.002.156-.035.332-.11.527zm-1.297.04c.051-.133.074-.252.067-.357-.006-.104-.041-.193-.105-.263-.064-.071-.158-.126-.284-.164-.126-.038-.302-.057-.527-.057h-.732l-.629 1.629h.892c.172 0 .323-.016.454-.051.13-.034.252-.085.363-.151.112-.066.211-.149.298-.248.086-.099.154-.212.203-.339zm.632-2.453c.045-.115.066-.219.063-.31-.002-.092-.029-.168-.081-.228-.052-.06-.129-.107-.23-.139-.102-.033-.248-.049-.439-.049h-.624l-.574 1.488h.69c.178 0 .328-.02.45-.06.122-.04.231-.094.328-.164s.181-.151.251-.243c.07-.094.126-.191.165-.294zM11.101 30.058l-.027.252-.091.139c-.046.031-.115.051-.205.058l-.366.011-.37-.007-.194-.027-.078-.055-.011-.093.036-1.151h-2.282l-.818 1.12-.089.104-.124.066-.206.033-.329.009-.333-.013c-.078-.009-.126-.031-.144-.065l.023-.143.166-.248 3.834-5.083.113-.121.147-.071.24-.031.388-.007.438.007.244.031.104.073.016.133-.082 5.079zm-1.167-4.202h-.005l-1.799 2.435h1.723l.081-2.435zM17.391 30.084l-.108.181-.152.133-.18.077-.186.024h-.525l-.272-.031c-.072-.021-.131-.058-.177-.113-.046-.054-.083-.128-.109-.221l-.072-.361-.478-2.679-.068-.516c-.02-.184-.032-.364-.037-.538h-.009l-.217.635-.243.653-1.157 2.997-.056.08-.112.059-.186.038-.282.013-.267-.013-.154-.038-.062-.059.008-.08 1.987-5.149c.054-.139.137-.243.249-.313.113-.069.232-.104.357-.104h.661l.29.028.181.095.11.183.062.29.375 2.095.06.374.053.368.044.361.037.354h.005l.228-.646.24-.642 1.037-2.688.059-.08.118-.062.188-.038.281-.011.263.011.152.038.058.062-.007.08-1.988 5.15zM23.503 30.319l-.059.086-.122.062-.214.038-.324.013c-.204 0-.347-.008-.43-.022l-.167-.066-.051-.107-.786-2.719-1.049 2.719-.061.085-.122.059-.202.038-.306.013-.293-.013-.176-.038-.078-.059.002-.085 2.083-5.397.063-.084.124-.058.204-.035.303-.014.296.014.174.035.076.058-.004.084-.942 2.44 2.719-2.436.117-.095.145-.06.205-.031.304-.009.305.014.181.038.078.06-.003.08-.102.155-.257.252-2.462 2.059.817 2.59.031.241-.015.095zM25.977 30.332l-.061.08-.123.057-.201.035-.306.013-.293-.013-.176-.035-.079-.057v-.08l2.088-5.411.061-.079.126-.058.204-.035.301-.014.296.014.174.035.079.058v.079l-2.088 5.411zM32.846 30.084l-.108.181-.152.133-.18.077-.185.024h-.526l-.272-.031c-.072-.021-.131-.058-.177-.113-.046-.054-.083-.128-.11-.221l-.072-.361-.478-2.679-.068-.516c-.02-.184-.032-.364-.037-.538h-.009l-.217.635-.243.653-1.157 2.997-.056.08-.112.059-.186.038-.282.013-.267-.013-.154-.038-.062-.059.007-.08 1.987-5.149c.053-.139.137-.243.25-.313.112-.069.231-.104.357-.104h.662l.289.028.181.095.11.183.062.29.375 2.095.06.374.053.368.044.361.037.354h.004l.229-.646.241-.642 1.037-2.688.059-.08.118-.062.188-.038.281-.011.263.011.152.038.058.062-.008.08-1.987 5.15zM41.198 25.652l-.097.221-.09.149-.081.077-.082.022-.166-.08-.294-.172c-.127-.062-.284-.12-.471-.173-.188-.053-.419-.08-.694-.08-.294 0-.579.048-.854.144-.275.096-.531.232-.768.407-.237.176-.448.387-.634.633-.185.247-.336.519-.451.817-.126.328-.192.616-.196.866-.004.25.045.458.146.626.101.169.252.295.451.381.2.086.441.129.723.129.138 0 .28-.015.425-.044.146-.03.289-.074.427-.133l.513-1.328h-1.15c-.056 0-.088-.033-.093-.1-.006-.066.023-.179.084-.338l.092-.208.087-.135.085-.075.084-.024h2.052l.124.024.075.073.023.117-.037.157-.88 2.281c-.034.088-.081.166-.139.233-.058.067-.146.119-.263.158l-.424.119-.508.106c-.173.03-.344.052-.514.066-.169.015-.337.022-.504.022-.485 0-.894-.066-1.226-.197-.333-.131-.584-.322-.754-.571-.17-.25-.256-.554-.258-.912-.003-.359.084-.766.259-1.22.181-.469.419-.89.713-1.264.294-.373.63-.691 1.006-.952s.786-.461 1.229-.6c.444-.139.905-.208 1.383-.208.263 0 .496.017.699.051.203.034.375.075.517.123.142.048.256.101.341.157l.166.146.025.175c-.011.074-.045.186-.101.333z" fill="#3A3A3A"/></g></svg>