<svg width="70" height="40" viewBox="0 0 70 40" xmlns="http://www.w3.org/2000/svg"><title>giropay</title><desc>Created with Sketch.</desc><g fill="none"><path d="M59.569 7.137h-49.915c-2.493 0-4.513 1.997-4.513 4.462v16.963c.001 2.465 2.021 4.462 4.513 4.463h49.915v-25.888M36.458 9.013h-26.937c-1.43.003-2.586 1.146-2.589 2.56v16.993c.003 1.413 1.159 2.557 2.589 2.56h26.937v-22.112" id="Fill" fill="#fff"/><path d="M6.933 28.565v-16.993c.003-1.413 1.159-2.557 2.589-2.56h26.937v22.112h-26.937c-1.43-.003-2.586-1.147-2.589-2.56zm54.142-21.464h-51.553c-2.498 0-4.521 2.001-4.522 4.471v16.993c.001 2.469 2.024 4.469 4.522 4.47h51.553c2.497-.001 4.521-2.001 4.522-4.47v-16.993c-.001-2.47-2.024-4.47-4.522-4.471z" id="Fill" fill="#0F3265"/><path d="M38.605 25.786h2.261v-3.516h.025c.427.77 1.282 1.056 2.073 1.056 1.948 0 2.99-1.59 2.99-3.504 0-1.565-.992-3.267-2.802-3.267-1.03 0-1.986.41-2.438 1.317h-.025v-1.168h-2.086v9.082zm5.014-5.914c0 1.031-.515 1.739-1.369 1.739-.754 0-1.383-.708-1.383-1.653 0-.969.553-1.69 1.383-1.69.879 0 1.369.745 1.369 1.603zM53.606 23.176c-.1-.509-.126-1.018-.126-1.528v-2.41c0-1.976-1.445-2.683-3.116-2.683-.968 0-1.81.136-2.614.46l.037 1.516c.629-.348 1.357-.485 2.086-.485.817 0 1.483.236 1.496 1.118-.289-.05-.691-.088-1.055-.088-1.206 0-3.38.237-3.38 2.212 0 1.404 1.156 2.038 2.45 2.038.93 0 1.558-.361 2.073-1.168h.025c0 .336.039.671.051 1.018h2.074zm-4.562-2.049c0-.621.603-.857 1.37-.857.339 0 .666.025.955.037 0 .758-.54 1.529-1.395 1.529-.527 0-.93-.262-.93-.709zM54.622 25.786c.465.1.93.149 1.408.149 2.074 0 2.563-1.579 3.204-3.205l2.4-6.027h-2.262l-1.345 4.224h-.025l-1.408-4.224h-2.437l2.65 6.622c-.162.572-.59.895-1.142.895-.315 0-.592-.037-.893-.137l-.151 1.702" id="Fill" fill="#fff"/><path d="M17.388 16.703h-2.049v1.168h-.025c-.478-.795-1.257-1.317-2.224-1.317-2.035 0-2.953 1.441-2.953 3.367 0 1.914 1.118 3.255 2.915 3.255.905 0 1.658-.347 2.198-1.106h.025v.349c0 1.267-.703 1.876-2.01 1.876-.942 0-1.52-.199-2.211-.534l-.113 1.765c.528.186 1.42.41 2.501.41 2.639 0 3.946-.858 3.946-3.516v-5.716zm-4.913 3.18c0-.882.44-1.615 1.282-1.615 1.018 0 1.445.807 1.445 1.528 0 .994-.641 1.665-1.445 1.665-.679 0-1.282-.572-1.282-1.578zM18.949 23.176h2.262v-6.473h-2.262v6.473zm0-7.529h2.262v-1.64h-2.262v1.64zM27.508 16.628c-.226-.037-.503-.074-.766-.074-.98 0-1.546.522-1.935 1.341h-.025v-1.192h-2.061v6.473h2.262v-2.733c0-1.268.591-2.026 1.646-2.026.264 0 .515 0 .766.074l.113-1.864M31.403 23.326c2.161 0 3.807-1.242 3.807-3.379 0-2.15-1.646-3.392-3.807-3.392s-3.807 1.242-3.807 3.392c0 2.137 1.646 3.379 3.807 3.379m0-1.566c-1.043 0-1.47-.857-1.47-1.814 0-.969.427-1.827 1.47-1.827s1.47.857 1.47 1.827c0 .957-.427 1.814-1.47 1.814" fill="#D9222A"/></g></svg>