<svg width="70" height="40" viewBox="0 0 70 40" xmlns="http://www.w3.org/2000/svg"><title>ideal</title><desc>Created with Sketch.</desc><g fill="none"><path d="M12 .001v39.999h23.493c15.498 0 22.218-8.616 22.218-20.039 0-11.378-6.72-19.959-22.218-19.959h-23.493" fill="#fff"/><path d="M16.571 4.543v30.916h18.925c11.426 0 17.644-5.283 17.644-15.498 0-10.496-6.738-15.418-17.644-15.418h-18.925zm-2.032-2.018h20.957c14.225 0 19.675 7.71 19.675 17.436 0 11.662-7.613 17.514-19.675 17.514h-20.957v-34.95z" fill="#1A1918"/><path fill="#1A1918" d="M19.11 32.937h6.058v-10.702h-6.058z"/><path d="M25.903 16.842c0 2.064-1.685 3.738-3.765 3.738-2.079 0-3.765-1.673-3.765-3.738 0-2.063 1.686-3.737 3.765-3.737 2.08 0 3.765 1.673 3.765 3.737" fill="#1A1918"/><path d="M28.217 15.1v3.489h1.078c.748 0 1.438-.216 1.438-1.774 0-1.52-.767-1.715-1.438-1.715h-1.078zm17.997-1.737h1.746v5.225h2.585c-.708-9.479-8.22-11.528-15.047-11.528h-7.279v6.307h1.076c1.965 0 3.184 1.321 3.184 3.447 0 2.195-1.189 3.506-3.184 3.506h-1.076v12.618h7.279c11.098 0 14.96-5.117 15.096-12.62h-4.38v-6.955zm-4.863 3.882h1.264l-.579-1.966h-.105l-.58 1.966zm-2.723 3.077l2.115-6.959h2.483l2.111 6.959h-1.817l-.395-1.347h-2.283l-.397 1.347h-1.817zm-.755-1.734v1.732h-4.317v-6.953h4.178v1.731h-2.433v.804h2.302v1.734h-2.302v.952h2.572z" fill="#C91967"/></g></svg>