<svg width="70" height="40" viewBox="0 0 70 40" xmlns="http://www.w3.org/2000/svg"><title>klarna</title><desc>Created with Sketch.</desc><g fill="#000" fill-rule="nonzero"><path d="M12.964 13h-3.347c0 2.691-1.261 5.147-3.453 6.765l-1.321.971 5.134 6.853h4.218l-4.728-6.309c2.237-2.176 3.498-5.118 3.498-8.279z" id="Shape"/><path d="M1 13h3.423v14.588h-3.423zM15.185 13h3.227v14.588h-3.227z"/><path d="M46.724 17.221c-1.231 0-2.402.368-3.182 1.412v-1.132h-3.062v10.088h3.107v-5.294c0-1.529 1.051-2.279 2.312-2.279 1.351 0 2.132.794 2.132 2.265v5.324h3.077v-6.426c0-2.353-1.906-3.956-4.383-3.956zM28.17 17.5v.647c-.871-.588-1.921-.926-3.062-.926-3.002 0-5.434 2.382-5.434 5.324 0 2.941 2.432 5.324 5.434 5.324 1.141 0 2.192-.338 3.062-.926v.647h3.077v-10.088h-3.077zm-2.807 7.632c-1.546 0-2.792-1.162-2.792-2.588 0-1.426 1.246-2.588 2.792-2.588 1.546 0 2.792 1.162 2.792 2.588 0 1.426-1.246 2.588-2.792 2.588zM36.021 18.809v-1.309h-3.152v10.088h3.167v-4.706c0-1.588 1.756-2.441 2.972-2.441h.03v-2.941c-1.246 0-2.402.529-3.017 1.309zM60.684 17.5v.647c-.871-.588-1.921-.926-3.062-.926-3.002 0-5.434 2.382-5.434 5.324 0 2.941 2.432 5.324 5.434 5.324 1.141 0 2.192-.338 3.062-.926v.647h3.077v-10.088h-3.077zm-2.807 7.632c-1.546 0-2.792-1.162-2.792-2.588 0-1.426 1.246-2.588 2.792-2.588 1.546 0 2.792 1.162 2.792 2.588.015 1.426-1.246 2.588-2.792 2.588z" id="Shape"/><g><path d="M66.148 17.794c0-.147-.105-.235-.27-.235h-.285v.765h.135v-.279h.15l.12.279h.15l-.135-.309c.09-.044.135-.118.135-.221zm-.27.118h-.15v-.235h.15c.09 0 .135.044.135.118s-.03.118-.135.118zM65.833 17.236c-.405 0-.736.324-.736.721.015.397.33.721.736.721.405 0 .736-.324.736-.721 0-.397-.33-.721-.736-.721zm0 1.309c-.33 0-.585-.265-.585-.588 0-.324.27-.588.585-.588.33 0 .585.265.585.588 0 .324-.27.588-.585.588z" id="Shape"/></g><path d="M67.049 24.015c-1.066 0-1.936.853-1.936 1.897s.871 1.897 1.936 1.897c1.066 0 1.936-.853 1.936-1.897 0-1.059-.871-1.897-1.936-1.897z"/></g></svg>