<svg width="70" height="40" viewBox="0 0 70 40" xmlns="http://www.w3.org/2000/svg"><title>maestro</title><desc>Created with Sketch.</desc><g id="maestro" fill="none"><path fill="#6C6BBD" d="M41.821 27.699h-13.48v-24.058h13.48z"/><g><path d="M59.526 25.15v-.647h-.156l-.18.444-.179-.444h-.157v.647h.111v-.488l.168.421h.115l.168-.422v.489h.11zm-.988 0v-.537h.2v-.109h-.509v.109h.2v.537h.11z" fill="#0099DF"/><path d="M29.196 15.669c0-4.88 2.301-9.228 5.884-12.029-2.62-2.049-5.927-3.271-9.521-3.271-8.508 0-15.405 6.85-15.405 15.301 0 8.45 6.897 15.301 15.405 15.301 3.594 0 6.901-1.223 9.521-3.271-3.583-2.802-5.884-7.149-5.884-12.029" fill="#D32011"/><path d="M60.007 15.669c0 8.45-6.897 15.301-15.405 15.301-3.594 0-6.901-1.223-9.522-3.271 3.584-2.802 5.885-7.149 5.885-12.029s-2.301-9.228-5.885-12.029c2.621-2.049 5.928-3.271 9.522-3.271 8.508 0 15.405 6.85 15.405 15.301" fill="#0099DF"/><path d="M46.382 34.496c.179 0 .437.034.634.111l-.274.833c-.188-.077-.376-.102-.556-.102-.582 0-.873.374-.873 1.045v2.278h-.89v-4.062h.882v.493c.231-.357.565-.595 1.078-.595zm-3.289.91h-1.455v1.836c0 .408.145.68.591.68.231 0 .522-.077.787-.23l.257.756c-.282.196-.727.315-1.112.315-1.053 0-1.42-.561-1.42-1.505v-1.852h-.831v-.807h.831v-1.232h.898v1.232h1.455v.807zm-11.391.867c.095-.587.454-.986 1.087-.986.573 0 .941.357 1.035.986h-2.123zm3.047.357c-.009-1.267-.796-2.133-1.943-2.133-1.198 0-2.036.867-2.036 2.133 0 1.291.873 2.132 2.097 2.132.616 0 1.18-.153 1.677-.569l-.437-.655c-.342.272-.779.425-1.189.425-.573 0-1.095-.264-1.223-.994h3.037l.018-.339zm3.91-.994c-.248-.154-.752-.349-1.274-.349-.488 0-.779.179-.779.477 0 .271.308.348.693.399l.419.059c.89.128 1.429.502 1.429 1.216 0 .773-.685 1.326-1.865 1.326-.668 0-1.284-.17-1.772-.527l.419-.689c.3.23.745.425 1.362.425.607 0 .932-.178.932-.493 0-.229-.231-.357-.719-.424l-.419-.059c-.916-.128-1.412-.536-1.412-1.198 0-.807.668-1.301 1.703-1.301.65 0 1.241.145 1.668.425l-.385.714zm10.975-.3c-.183 0-.353.032-.51.095-.157.064-.293.154-.407.268-.115.115-.205.253-.27.413-.066.161-.098.338-.098.53 0 .194.032.37.098.53.066.161.156.299.27.413.115.115.251.204.407.268.158.064.327.095.51.095s.354-.031.51-.095c.158-.064.295-.154.409-.268.117-.115.207-.253.273-.413.066-.161.098-.337.098-.53s-.032-.37-.098-.53c-.067-.161-.157-.299-.273-.413-.115-.115-.252-.204-.409-.268-.157-.063-.327-.095-.51-.095zm0-.839c.317 0 .611.054.882.164.27.109.504.26.701.451.198.192.352.418.463.679.112.262.167.546.167.852 0 .306-.056.59-.167.852-.112.261-.265.488-.463.68-.197.192-.431.341-.701.451-.27.109-.564.163-.882.163-.317 0-.611-.054-.882-.163-.27-.11-.502-.26-.698-.451-.196-.192-.35-.419-.461-.68-.112-.262-.167-.546-.167-.852 0-.306.056-.59.167-.852.112-.261.265-.487.461-.679.196-.192.428-.342.698-.451.27-.11.564-.164.882-.164zm-23.132 2.133c0-.714.471-1.301 1.241-1.301.736 0 1.232.561 1.232 1.301 0 .739-.497 1.3-1.232 1.3-.77 0-1.241-.586-1.241-1.3zm3.312 0v-2.031h-.889v.493c-.283-.366-.71-.595-1.292-.595-1.147 0-2.045.892-2.045 2.133 0 1.24.898 2.133 2.045 2.133.582 0 1.009-.23 1.292-.595v.493h.889v-2.031zm-5.014 2.031v-2.55c0-.96-.616-1.606-1.608-1.615-.522-.009-1.062.153-1.438.723-.282-.45-.728-.723-1.353-.723-.436 0-.864.127-1.198.603v-.501h-.889v4.062h.898v-2.252c0-.705.394-1.08 1.001-1.08.591 0 .89.382.89 1.071v2.261h.898v-2.252c0-.705.411-1.08 1.001-1.08.608 0 .899.382.899 1.071v2.261h.898z" fill="#110F0D"/></g><path d="M52.849 39.4v-.1h.093l.05.013.02.038-.02.037-.05.013h-.093zm.094.07l.112-.032.039-.088-.031-.077-.089-.037.123-.141h-.096l-.115.14h-.037v-.14h-.08v.375h.174zm-.024-.503l.122.024.1.067.068.1.024.123-.024.123-.068.1-.1.066-.122.024-.124-.024-.102-.066-.067-.1-.024-.123.024-.123.067-.1.102-.067.124-.024zm0 .718l.161-.032.132-.087.088-.128.032-.157-.032-.157-.088-.127-.132-.088-.161-.032-.164.032-.132.088-.088.127-.032.157.032.157.088.128.132.087.164.032z" fill="#242021"/></g></svg>