<svg width="70" height="40" viewBox="0 0 70 40" xmlns="http://www.w3.org/2000/svg"><title>paysafecard</title><desc>Created with Sketch.</desc><g fill="none"><path d="M9.231 18.9c.01-.518.122-.917.355-1.196.122-.11.274-.209.456-.289.193-.08.375-.12.558-.12h2.169c.953.01 1.44.518 1.46 1.545v3.15c-.01.359-.152.678-.436.937-.274.279-.608.419-.994.429h-2.048v2.273h-1.521v-6.728zm3.477.299c-.01-.239-.122-.359-.345-.369h-1.186c-.284.02-.426.17-.436.449v2.093c.01.289.162.439.476.449h1.085c.112 0 .203-.04.284-.13.081-.06.112-.14.112-.239v-2.253h.01zM18.942 19.159c.01-.229-.132-.339-.406-.329h-3.061v-1.535h3.447c1.003.02 1.51.488 1.531 1.435v3.21c-.01.409-.132.738-.375 1.007-.253.279-.588.419-.994.419h-2.078c-1.014-.01-1.531-.459-1.541-1.366v-1.236c.01-.947.497-1.425 1.47-1.446h2.017v-.159h-.01zm-1.977 2.352c0 .09.041.159.122.209.071.06.162.1.274.1h1.166c.264 0 .406-.1.406-.299v-.429c0-.229-.142-.349-.415-.349h-1.156c-.152 0-.253.02-.314.07-.051.06-.081.169-.081.329v.369zM24.71 24.093c.122-.01.223-.05.304-.13.081-.07.122-.15.122-.249v-.359h-1.946c-.253 0-.456-.03-.608-.1-.162-.06-.314-.17-.476-.319-.152-.159-.264-.329-.324-.508-.071-.159-.101-.369-.101-.618v-4.516h1.521v4.037c0 .329.132.488.406.488h1.074c.132 0 .243-.04.335-.13.091-.07.132-.159.132-.259v-4.157h1.51v6.679c-.01.498-.142.887-.385 1.186-.253.299-.598.459-1.034.459h-3.548v-1.535h3.021v.03zM27.843 21.82h2.707c.243-.01.375-.11.385-.289v-.14l-.041-.13c-.061-.12-.132-.17-.223-.17h-1.3379999999999999c-.395-.01-.74-.14-1.024-.399-.284-.239-.436-.538-.446-.887v-1.156c.02-.897.507-1.346 1.48-1.366h3.143v1.535h-2.656c-.314 0-.466.09-.466.279v.159c0 .199.162.289.476.289h1.338c.355.01.659.14.912.409.253.259.385.578.395.937v1.116c-.01.319-.152.628-.436.937-.142.15-.284.259-.426.319-.142.06-.345.08-.598.08h-3.173v-1.525h-.009zM37.047 19.159c.01-.229-.132-.339-.405-.329h-3.061v-1.535h3.447c1.003.02 1.51.488 1.531 1.435v3.21c-.01.409-.132.738-.375 1.007-.253.279-.588.419-.993.419h-2.078c-1.013-.01-1.531-.459-1.541-1.366v-1.236c.01-.947.497-1.425 1.47-1.446h2.017v-.159h-.011zm-1.977 2.352c0 .09.04.159.122.209.071.06.162.1.274.1h1.166c.264 0 .395-.1.406-.299v-.429c0-.229-.142-.349-.416-.349h-1.156c-.152 0-.253.02-.314.07-.051.06-.081.169-.081.329v.369zM39.784 16.417c.01-.419.162-.748.466-.997.294-.249.679-.379 1.166-.389h.963v1.485h-.588c-.324.01-.486.159-.486.449v.329h1.074v1.535h-1.074v4.526h-1.521v-6.938zM44.812 21.292v.1c0 .12.03.219.102.289.051.09.112.14.193.14h3.123v1.535h-3.315c-.304 0-.537-.03-.71-.08-.183-.06-.345-.16-.487-.289-.162-.16-.284-.329-.335-.498-.061-.179-.091-.409-.091-.708l-.01-3.07c.02-.927.507-1.396 1.48-1.416h2.048c.943.02 1.429.508 1.439 1.465v1.216l-3.437 1.316zm1.886-2.163v-.04c0-.08-.03-.15-.102-.199-.071-.05-.162-.07-.263-.07h-1.055c-.132 0-.243.04-.335.11-.101.07-.162.159-.162.279v.618l1.916-.698zM51.452 23.355c-.233 0-.436-.02-.628-.06-.203-.03-.395-.12-.598-.279-.213-.179-.355-.379-.436-.598-.081-.219-.122-.459-.122-.738v-2.861c-.01-.229.02-.439.071-.618.051-.179.162-.349.324-.518.183-.179.375-.299.568-.359.193-.05.405-.07.649-.07h2.331v.359h-2.271c-.405 0-.72.08-.943.239-.233.179-.355.478-.355.917v2.861c0 .2.03.399.091.588.061.189.172.349.324.488.162.12.335.199.487.229.172.04.345.05.537.05h2.17v.359h-2.2v.01zM59.957 21.701c0 .229-.02.429-.051.608-.051.189-.152.379-.304.558-.314.329-.71.488-1.186.478h-1.815c-.466 0-.851-.14-1.145-.419-.304-.269-.456-.648-.456-1.136v-.927c.02-1.037.548-1.575 1.582-1.595h3.021v-.409c0-.329-.102-.628-.294-.877-.121-.159-.274-.269-.436-.329-.173-.04-.355-.07-.568-.07h-3.295v-.359h3.122c.284 0 .548.02.781.06.122.02.233.07.335.14.112.06.203.159.304.279.284.359.416.768.416 1.226v2.771h-.01zm-.365-2.064h-3.052c-.365.01-.649.12-.862.329-.213.219-.314.518-.314.897v.917c0 .179.02.339.061.488.041.15.132.289.284.409.264.219.558.319.872.319h1.845c.77-.01 1.166-.409 1.166-1.206v-2.153zM63.364 17.614c-.841.02-1.267.469-1.247 1.366v4.376h-.365v-4.376c-.02-1.146.537-1.725 1.673-1.725h.405v.359h-.466zM69.872 21.661c-.03 1.156-.659 1.725-1.865 1.695h-1.348c-.284 0-.537-.02-.761-.07-.233-.06-.456-.2-.669-.419-.162-.199-.263-.389-.304-.588-.051-.199-.081-.429-.071-.668v-2.612c.02-1.176.618-1.754 1.804-1.744h2.849v-1.984h.365v6.39zm-.355-4.047h-2.879c-.203 0-.395.02-.558.07-.173.04-.345.14-.507.309-.152.159-.243.309-.284.459-.051.159-.081.339-.071.558v2.791c0 .469.132.777.415.947.132.08.284.14.456.179.173.04.355.07.558.07h1.257c.467 0 .852-.11 1.145-.319.294-.199.446-.548.456-1.047v-4.017h.01z" id="Shape" fill="#128AC7"/><path d="M.797 17.065l.355-.12c.223-1.027 1.156-1.804 2.261-1.804 1.115 0 2.038.777 2.261 1.804.345.06.618.199.841.399.01-.199 0-.389-.02-.568-.142-1.555-1.47-2.771-3.082-2.771-1.662 0-3.021 1.296-3.092 2.921l-.01.439c.142-.12.304-.219.487-.299zM5.217 17.295h-3.7c-.182 0-.365.04-.558.12-.182.08-.335.169-.456.289-.233.269-.345.668-.355 1.196v2.851c.01.528.122.917.355 1.196.122.12.274.209.456.289.193.08.375.12.558.12h3.71c.953-.01 1.45-.529 1.46-1.545v-2.971c-.02-1.027-.507-1.535-1.47-1.545z" fill="#E00D1D"/></g></svg>