<svg width="70" height="40" viewBox="0 0 70 40" xmlns="http://www.w3.org/2000/svg"><title>trustly</title><desc>Created with Sketch.</desc><g fill-rule="nonzero" fill="none"><path d="M8.231 28.241c0 1.146-.896 2.073-2.003 2.073-1.107 0-2.003-.927-2.003-2.073s.896-2.073 2.003-2.073c1.107 0 2.003.932 2.003 2.073zm6.791 0c0 1.146-.896 2.073-2.003 2.073-1.107 0-2.003-.927-2.003-2.073s.896-2.073 2.003-2.073c1.107 0 2.003.932 2.003 2.073zm-2.142-12.515h-6.508v-1.602h.005v-.042c0-1.858 1.458-3.367 3.254-3.367s3.254 1.509 3.254 3.367v1.6440000000000001h-.005zm-1.071 3.228c0 .102 0 .186-.194.186h-1.022c-.113 0-.162.023-.162.14v3.633c0 .186-.104.238-.356.238h-1.004c-.279 0-.356-.028-.356-.238v-3.633c0-.116-.05-.14-.162-.14h-.941c-.194 0-.194-.088-.194-.186v-.894c0-.172.126-.196.32-.196h3.744c.194 0 .32.023.32.196l.005.894zm5.108-3.228h-2.241v-1.258l.005-.238c0-2.888-2.264-5.231-5.054-5.231-2.79 0-5.054 2.343-5.054 5.231v1.4909999999999999h-2.232c-.747 0-1.476.377-1.319 1.262l1.656 7.676c.149.652.603 1.099 1.35 1.099h11.197c.747 0 1.206-.447 1.35-1.099l1.656-7.676c.162-.88-.572-1.258-1.314-1.258z" fill="#69BB4D"/><path d="M28.478 17.519h-1.991c-.219 0-.315.039-.315.246v6.494c0 .337-.205.428-.694.428h-1.963c-.544 0-.694-.052-.694-.428v-6.494c0-.207-.096-.246-.315-.246h-1.84c-.383 0-.383-.155-.383-.337v-1.6c0-.311.246-.35.626-.35h7.322c.383 0 .626.039.626.35v1.6c.003.185.003.337-.38.337zm5.92.211c.109 0 .315 0 .315.22v1.496c0 .155-.082.298-.315.298-.369 0-.964.016-1.279.133-.588.22-.78.499-.78 1.03v3.087c0 .334.014.696-.492.696h-1.826c-.52 0-.667-.272-.667-.606v-4.83c0-.807.352-1.516 2.059-1.516l2.986-.01zm3.188 6.971c-.941 0-1.977-.415-1.977-2.067v-4.198c0-.363.15-.696.534-.696h1.908c.342 0 .667.22.667.544v3.356c0 .311.109.645.53.645.438 0 .575-.324.575-.619v-3.229c0-.337-.014-.696.489-.696h1.826c.52 0 .667.272.667.606v4.266c0 1.82-1.177 2.086-1.696 2.086l-3.523.003zm9.494.168c-1.433 0-2.74-.272-3.04-.415-.137-.065-.26-1.898.15-1.807.301.065.804.233 1.936.233.599 0 .941-.078.941-.35 0-.181-.328-.311-.735-.476-.886-.363-2.264-.865-2.264-2.39 0-1.561 1.867-2.183 3.666-2.183 1.433 0 1.854.143 2.059.22.26.091-.014 1.717-.383 1.704-.246-.013-1.077-.155-1.529-.155-.465 0-.667.078-.667.298 0 .117.26.259.667.441.927.402 2.415 1.059 2.415 2.607.003 2.015-1.908 2.274-3.215 2.274zm8.509-5.205h-.831v2.802c0 .246.205.35.506.35l.205-.013c.205-.026.407 1.756.274 1.82-.205.091-.982.246-1.69.246-1.799 0-2.291-1.098-2.305-1.872-.014-.774 0-3.369 0-3.369h-.451c-.342 0-.41-.207-.41-.531v-.839c0-.363.123-.502.506-.502h.503v-.904c0-.324.342-.492.667-.541l1.57-.246c.53-.078.53.104.53.463v1.228h.858c.342 0 .438.311.438.632v.735c-.003.36-.003.541-.369.541zm3.954 5.024h-1.963c-.479 0-.53-.052-.53-.453v-8.781c0-.194.137-.363.41-.363h1.949c.585 0 .626.168.626.45v8.548c-.003.34.01.599-.492.599zm5.551 2.067c-.109.246-.369.515-.643.515h-1.539c-.489 0-.557-.155-.424-.453l1.023-2.3-2.698-6.329c-.123-.298 0-.453.424-.453h2.223c.274 0 .547.259.64.515l.982 2.633 1.118-2.633c.109-.259.369-.515.64-.515h1.676c.492 0 .561.155.424.453l-3.844 8.567z" fill="#131110"/></g></svg>