<svg width="70" height="40" viewBox="0 0 70 40" xmlns="http://www.w3.org/2000/svg"><title>afterpay</title><desc>Created with Sketch.</desc><g fill-rule="nonzero" fill="none"><path d="M4.851 13.187c-.545-.108-1.099-.108-1.634 0-1.95.394-3.218 1.932-3.218 3.924v6.241c0 .256.03.434.109.582l.01.01c.089.168.257.296.446.345.198.049.406.01.574-.108.327-.217.366-.592.366-.858v-2.514h5.069v2.534c0 .306.089.483.139.592.089.168.257.296.446.345l.168.02c.149 0 .287-.039.406-.128.297-.197.337-.523.337-.858v-6.211c-.01-1.992-1.267-3.52-3.218-3.914zm1.713 3.934v2.287h-5.05v-2.287c0-.986.347-1.676 1.109-2.169.535-.375 1.238-.513 1.931-.385.337.059.634.187.891.375l.01.01c.752.503 1.109 1.193 1.109 2.169zm16.495 3.776c-.079-.168-.238-.296-.416-.355-.188-.059-.386-.03-.564.059-.347.168-.416.542-.436.67l-.059.315-.01.099c-.228.976-1.02 1.508-2.03 1.361-.653-.099-1.525-.444-1.525-2.238v-.118h1.98c.238 0 .96 0 .96-.71 0-.355-.267-.651-.584-.67-.149-.02-.277-.02-.426-.02h-1.931v-2.731c0-.256-.03-.434-.109-.582v-.01c-.089-.168-.257-.296-.446-.345-.198-.049-.406-.01-.574.108-.297.197-.337.523-.337.858v4.072c0 2.317.842 3.48 2.733 3.786.218.039.436.059.653.059 1.485 0 2.733-.917 3.129-2.376l.069-.335v-.01c.059-.424.04-.661-.079-.887zm9.673-1.942c-.634-2.356-3.05-3.717-5.505-3.106-1.257.315-2.277 1.075-2.871 2.139-.594 1.065-.703 2.337-.307 3.579.594 1.824 2.287 2.968 4.218 2.968.347 0 .713-.039 1.069-.118.545-.118 1.079-.345 1.554-.651.356-.237.653-.493.812-.69.248-.296.396-.532.366-.808-.02-.187-.119-.355-.267-.473-.158-.118-.366-.168-.554-.128l-.03.01c-.188.059-.337.138-.455.256l-.129.158-.188.168-.01.01c-.416.414-.921.7-1.465.808-1.475.335-2.931-.444-3.465-1.844l-.099-.325h6.475l.139-.02.218-.01c.238-.02.416-.108.535-.276.218-.306.208-.759-.04-1.646zm-7.248.246c.505-1.597 2.119-2.455 3.743-1.982 1.02.296 1.812 1.124 2.069 2.159l.05.237-5.96-.049.099-.365zm14.881-.887l-.099-.335-.03-.089c-.515-1.42-1.703-2.258-3.168-2.248-.257 0-.475.02-.703.069-1.168.256-2.554 1.094-2.554 3.628v4.003c0 .286.069.454.139.592.089.168.257.296.446.345l.168.02c.149 0 .287-.039.406-.128.307-.207.307-.562.307-.858v-3.973c0-1.341.426-1.992 1.416-2.189.663-.148 1.317.069 1.723.552.198.237.317.463.366.661.149.71.228.927.327 1.065l.03.039c.218.246.604.315.921.158.455-.246.406-.828.307-1.311z" id="Shape" fill="#78A431"/><path d="M48.98 14.459c-.733-.877-1.832-1.38-3.02-1.361-2.228.03-3.733 1.637-3.733 4.003v6.241c0 .286.069.454.139.592.089.168.257.296.446.345l.168.02c.149 0 .287-.039.406-.128.307-.207.347-.552.347-.858v-2.83h2.168c2.05 0 3.446-1.065 3.832-2.918.228-1.114-.04-2.238-.752-3.106zm-.693 2.366c-.03 1.331-1.01 2.248-2.396 2.248h-.03l-2.109-.03v-2.07c0-.927.139-1.361.584-1.814.436-.454 1.01-.67 1.693-.661 1.337.03 2.267.986 2.257 2.327zm10.851 2.839c-.02-.355-.069-.67-.158-.956-.307-1.065-1.03-1.952-2.03-2.504-1.069-.582-2.327-.71-3.535-.355-1.574.463-2.762 1.725-3.089 3.313-.485 2.386.861 4.614 3.129 5.196.416.108.842.158 1.257.158.634 0 1.248-.128 1.802-.375.455-.207.861-.483 1.178-.818v.02c0 .266 0 .424.079.582l.01.01c.089.168.257.296.446.345.198.049.406.01.574-.108.307-.207.356-.552.356-.858v-3.48l-.02-.168zm-3.723 3.362c-1.634.375-3.149-.513-3.584-2.11v-.01c-.069-.207-.099-.414-.119-.621-.089-1.41.762-2.682 2.079-3.086.317-.099.644-.148.96-.148.614 0 1.198.177 1.703.532.762.532 1.218 1.4 1.248 2.376.059 1.508-.851 2.741-2.287 3.066zm11.584-6.773l-.307.148.307-.148-.01-.02c-.089-.168-.257-.296-.446-.345-.198-.049-.406-.01-.574.108-.297.197-.327.532-.327.858v3.973c0 .779-.238 1.41-.663 1.785-.376.325-.881.454-1.465.375-1.01-.138-1.564-.858-1.564-2.031v-4.121c0-.246-.02-.424-.099-.592-.089-.168-.257-.296-.446-.345-.198-.049-.406-.01-.574.108-.307.207-.356.552-.356.858v4.121c0 1.646.752 2.81 2.129 3.283 1.059.365 2.218.187 3.02-.404v.03c-.129.868-.574 1.39-1.366 1.597-.426.118-.861.089-1.198-.079-.277-.138-.475-.296-.594-.463l-.218-.276-.139-.158c-.089-.118-.158-.177-.198-.207l-.04-.039-.04-.02c-.198-.118-.446-.128-.653-.03-.218.099-.376.296-.416.523-.05.315.079.582.307.927l.01.01c.168.237.396.473.644.67.535.424 1.238.641 1.98.641.317 0 .634-.039.95-.118 1.594-.404 2.475-1.676 2.475-3.579v-6.458c.01-.306-.079-.473-.129-.582z" id="Shape" fill="#675041"/><path d="M15.673 18.314l-.099-.335-.03-.089c-.515-1.42-1.703-2.258-3.168-2.248-.267 0-.475.02-.703.069-1.168.256-2.554 1.094-2.554 3.628v4.003c0 .306.089.483.139.582v.01c.089.168.257.296.446.345l.168.02c.149 0 .287-.039.406-.128.297-.197.337-.532.337-.858v-.946l-.03-1.666h2.109c.693 0 .861-.355.881-.661.01-.256-.089-.414-.168-.503-.149-.158-.386-.237-.713-.237h-2.119c.01-1.301.436-1.942 1.416-2.149.663-.148 1.317.069 1.723.552.198.246.317.463.366.661.149.71.228.927.327 1.065l.03.039c.218.246.604.315.921.158.465-.246.416-.828.317-1.311z" id="Shape" fill="#78A431"/><path d="M69.634 15.297c-.218.217-.475.325-.772.325-.307 0-.564-.108-.772-.325-.208-.217-.317-.473-.317-.769 0-.296.109-.552.317-.769.218-.217.475-.315.772-.315.307 0 .564.108.772.315.218.207.317.463.317.769 0 .296-.109.552-.317.769zm-1.446-1.439c-.178.187-.277.404-.277.661 0 .256.089.483.277.67.188.187.406.276.663.276s.485-.089.663-.276c.178-.187.277-.404.277-.67 0-.256-.089-.483-.277-.661-.188-.187-.406-.276-.663-.276s-.475.099-.663.276zm.644.059c.149 0 .257.01.327.039.119.049.188.148.188.306 0 .108-.04.187-.119.237l-.178.059c.089.02.158.059.208.118.04.059.069.128.069.187v.177l.01.059.01.01h-.198v-.158c0-.138-.04-.227-.109-.276-.05-.03-.119-.039-.238-.039h-.168v.473h-.218v-1.193h.416zm.228.197c-.05-.03-.139-.049-.257-.049h-.178v.434h.188l.198-.03c.079-.03.129-.099.129-.187 0-.079-.02-.138-.079-.168z" fill="#675041"/></g></svg>