<svg width="70" height="40" viewBox="0 0 70 40" xmlns="http://www.w3.org/2000/svg"><title>amex</title><desc>Created with Sketch.</desc><defs><radialGradient cx="17.541%" cy="17.466%" fx="17.541%" fy="17.466%" r="93.287%" id="a"><stop stop-color="#9DD5F6" offset="0%"/><stop stop-color="#98D3F5" offset="7.11%"/><stop stop-color="#89CEF3" offset="15.75%"/><stop stop-color="#70C6EF" offset="25.16%"/><stop stop-color="#4EBBEA" offset="35.14%"/><stop stop-color="#23ADE3" offset="45.46%"/><stop stop-color="#0DA6E0" offset="50%"/><stop stop-color="#2E77BC" offset="100%"/></radialGradient></defs><g fill="none"><path d="M54.661.084h-39.571v39.854h39.571v-13.153c.157-.228.235-.52.235-.876 0-.408-.078-.661-.235-.874" id="Shape" fill="url(#a)"/><path d="M18.657 17.33l-.761-1.862-.757 1.862h1.518zm16.771-.741c-.153.093-.334.096-.55.096h-1.351v-1.037h1.37c.194 0 .396.009.527.084.144.068.234.213.234.413 0 .204-.085.368-.229.444zm9.639.741l-.77-1.862-.765 1.862h1.535zm-17.968 2.015h-1.14l-.004-3.657-1.613 3.657h-.977l-1.617-3.66v3.66h-2.262l-.427-1.042h-2.316l-.432 1.042h-1.208l1.992-4.67h1.652l1.892 4.421v-4.421h1.815l1.456 3.168 1.337-3.168h1.852v4.67zm4.544 0h-3.716v-4.67h3.716v.972h-2.603v.842h2.541v.957h-2.541v.933h2.603v.966zm5.239-3.412c0 .745-.495 1.129-.784 1.245.243.093.451.257.55.393.157.232.184.44.184.857v.917h-1.122l-.004-.589c0-.281.027-.685-.176-.91-.163-.164-.41-.2-.811-.2h-1.194v1.698h-1.112v-4.67h2.558c.568 0 .987.015 1.347.224.352.209.563.513.563 1.034zm1.78 3.412h-1.135v-4.67h1.135v4.67zm13.166 0h-1.576l-2.108-3.505v3.505h-2.265l-.433-1.042h-2.31l-.42 1.042h-1.301c-.541 0-1.225-.12-1.613-.516-.391-.396-.594-.934-.594-1.783 0-.693.122-1.326.6-1.826.36-.373.923-.545 1.689-.545h1.077v1.001h-1.054c-.406 0-.635.061-.856.277-.19.197-.32.568-.32 1.058 0 .5.099.861.306 1.097.171.185.482.241.775.241h.5l1.568-3.672h1.667l1.883 4.417v-4.417h1.693l1.955 3.252v-3.252h1.139v4.669zm-36.738.917h1.9l.428-1.037h.959l.427 1.037h3.739v-.793l.334.796h1.941l.334-.808v.805h9.292l-.004-1.703h.18c.126.004.163.016.163.225v1.478h4.806v-.396c.388.208.991.396 1.784.396h2.022l.433-1.037h.959l.423 1.037h3.896v-.985l.59.985h3.122v-6.513h-3.09v.769l-.433-.769h-3.171v.769l-.397-.769h-4.283c-.717 0-1.347.1-1.856.38v-.38h-2.956v.38c-.324-.288-.765-.38-1.256-.38h-10.798l-.724 1.682-.744-1.682h-3.401v.769l-.374-.769h-2.9l-1.347 3.096v3.416zM54.661 23.706h-2.027c-.202 0-.337.008-.45.084-.117.076-.163.188-.163.336 0 .176.099.296.243.348.117.041.243.053.429.053l.603.016c.608.015 1.014.12 1.262.376l.103.116v-1.329zm0 3.079c-.27.396-.797.597-1.509.597h-2.148v-1.002h2.139c.212 0 .361-.028.45-.116.077-.072.132-.177.132-.305 0-.136-.054-.244-.136-.309-.081-.071-.198-.104-.392-.104-1.044-.036-2.347.032-2.347-1.446 0-.677.429-1.391 1.596-1.391h2.215v-.929h-2.058c-.621 0-1.072.149-1.392.381v-.381h-3.045c-.487 0-1.058.121-1.329.381v-.381h-5.437v.381c-.433-.313-1.163-.381-1.5-.381h-3.586v.381c-.342-.333-1.104-.381-1.568-.381h-4.014l-.918.997-.86-.997h-5.996v6.517h5.883l.946-1.013.892 1.013 3.626.003v-1.533h.356c.481.007 1.049-.012 1.549-.229v1.759h2.991v-1.699h.144c.184 0 .202.008.202.192v1.506h9.086c.577 0 1.18-.148 1.514-.417v.417h2.882c.6 0 1.185-.084 1.631-.3v-1.214zm-4.437-1.866c.217.225.333.509.333.99 0 1.005-.626 1.474-1.747 1.474h-2.166v-1.002h2.158c.211 0 .361-.028.454-.116.076-.072.131-.177.131-.305 0-.136-.059-.244-.136-.309-.085-.071-.202-.104-.396-.104-1.04-.036-2.343.032-2.343-1.446 0-.677.424-1.391 1.59-1.391h2.23v.994h-2.04c-.202 0-.334.008-.446.084-.122.076-.167.188-.167.336 0 .176.103.296.243.348.117.041.243.053.433.053l.599.016c.604.015 1.018.12 1.27.376zm-10.036-.288c-.149.089-.333.096-.549.096h-1.351v-1.049h1.37c.198 0 .396.004.531.084.144.076.23.22.23.42 0 .2-.086.361-.23.448zm.672.581c.248.092.45.256.545.392.157.228.18.441.184.853v.926h-1.117v-.584c0-.281.027-.697-.18-.914-.163-.167-.41-.207-.816-.207h-1.189v1.706h-1.118v-4.671h2.568c.563 0 .973.025 1.338.22.351.213.572.504.572 1.037 0 .745-.496 1.126-.788 1.243zm1.405-2.5h3.712v.966h-2.604v.849h2.541v.953h-2.541v.929l2.604.004v.969h-3.712v-4.671zm-7.504 2.155h-1.437v-1.189h1.45c.402 0 .68.164.68.573 0 .404-.266.617-.693.617zm-2.545 2.09l-1.708-1.903 1.708-1.842v3.745zm-4.41-.549h-2.735v-.929h2.442v-.953h-2.442v-.849h2.788l1.217 1.361-1.27 1.37zm8.842-2.159c0 1.297-.965 1.565-1.937 1.565h-1.388v1.567h-2.162l-1.37-1.546-1.423 1.546h-4.406v-4.671h4.473l1.368 1.531 1.415-1.531h3.554c.883 0 1.874.245 1.874 1.539z" fill="#fff"/></g></svg>