<svg width="70" height="40" viewBox="0 0 70 40" xmlns="http://www.w3.org/2000/svg"><g fill="none"><path d="M62.871 36.186c0 1.853-1.528 3.369-3.395 3.369h-48.997c-1.867 0-3.395-1.516-3.395-3.369v-32.397c0-1.853 1.528-3.369 3.395-3.369h48.997c1.867 0 3.395 1.516 3.395 3.369l-.001 32.397z" id="Shape" fill="#fff"/><path d="M51.904 11.354h-13.387l-1.361 1.521-4.418 4.936-1.361 1.521h-13.21l1.341-1.54.635-.729 1.341-1.54h-6.088c-1.112 0-2.022.926-2.022 2.057v4.341c0 1.132.91 2.058 2.022 2.058h23.303c1.112 0 2.631-.688 3.376-1.528l3.525-3.978 6.304-7.118z" id="Shape" fill="#005596"/><path d="M54.593 6.713c1.112 0 2.022.926 2.022 2.058v4.341c0 1.132-.91 2.058-2.022 2.058h-6.067l1.353-1.528.671-.758 1.353-1.528h-13.386l-7.141 7.984h-13.291l9.532-10.695.361-.405c.747-.838 2.268-1.524 3.38-1.524h23.235999999999997z" id="Shape" fill="#fd0"/><path d="M56.615 33.084v-.633c0-.092-.057-.138-.173-.138h-.404c-.126 0-.203-.023-.231-.07-.027-.046-.042-.152-.042-.315v-2.379h.676l.115-.05.049-.115v-.668l-.049-.115-.115-.05h-.676v-.867l-.041-.102-.106-.037h-.024l-.999.172-.115.057-.049.106v.67h-.659l-.12.053-.054.119v.54l.054.11.12.061.659.106v2.371c0 .289.03.525.09.707.06.182.147.326.262.429.115.104.258.173.43.208s.37.053.594.053l.321-.016.33-.048c.104-.015.156-.07.156-.161zm-3.552-.084v-.728l-.045-.102-.111-.037h-.016l-.441.041c-.14.011-.328.016-.564.016-.093 0-.181-.015-.264-.045-.082-.03-.154-.082-.214-.155s-.109-.172-.144-.294c-.036-.123-.054-.274-.054-.454v-.687c0-.18.018-.332.054-.454.035-.123.084-.221.144-.295.06-.073.132-.125.214-.155.082-.03.17-.045.264-.045.236 0 .424.005.564.016l.441.041h.016l.111-.037.045-.102v-.728l-.042-.127-.132-.061-.449-.082c-.184-.027-.399-.041-.647-.041-.583 0-1.048.177-1.397.532-.349.355-.523.867-.523 1.537v.687c0 .67.174 1.183.523 1.537.349.355.814.532 1.397.532.247 0 .463-.014.647-.041l.449-.082.132-.061.042-.126zm-5.364-.867l-.317.127c-.113.036-.232.053-.359.053-.176 0-.306-.024-.392-.073-.086-.049-.128-.161-.128-.335v-.075l.033-.262c.022-.076.06-.139.115-.188.055-.049.129-.085.222-.11.093-.024.211-.037.354-.037h.47v.9zm1.31-1.979c0-.299-.045-.555-.136-.764-.09-.21-.218-.381-.383-.515-.165-.133-.366-.232-.606-.294-.239-.062-.506-.094-.803-.094-.275 0-.542.019-.803.057-.261.038-.468.076-.622.115-.104.027-.156.087-.156.18v.662l.041.115.107.033h.042l.247-.021.333-.021.387-.012.399-.004c.192 0 .343.036.453.106.11.071.165.224.165.458v.295h-.445c-.708 0-1.224.11-1.545.331-.321.221-.482.571-.482 1.05v.074c0 .267.04.49.12.67.079.18.186.324.317.433.132.109.282.187.449.233.167.046.342.07.523.07.247 0 .46-.033.638-.098s.348-.155.507-.27v.131l.049.115.115.049h.923l.115-.049.049-.115v-2.919zm-4.4 2.929v-.633c0-.092-.057-.138-.173-.138h-.404c-.126 0-.203-.023-.231-.07-.027-.046-.042-.152-.042-.315v-2.379h.676l.115-.05.049-.115v-.668l-.049-.115-.115-.05h-.676v-.867l-.041-.102-.106-.037h-.024l-.999.172-.115.057-.049.106v.67h-.659l-.12.053-.054.119v.54l.054.11.12.061.659.106v2.371c0 .289.03.525.09.707.06.182.147.326.262.429.115.103.258.173.43.208s.37.053.594.053l.321-.016.33-.048c.104-.015.156-.07.156-.161zm-3.593-.018v-2.723c0-.256-.021-.498-.062-.724-.042-.226-.115-.422-.222-.589-.107-.166-.255-.298-.445-.396-.189-.098-.432-.147-.729-.147-.264 0-.497.032-.701.095-.203.063-.418.175-.643.333v-.198l-.049-.115-.115-.05h-.923l-.115.049-.049.115v4.35l.054.119.12.053h.997l.115-.053.049-.118v-3.215c.143-.076.277-.139.404-.187.126-.049.25-.073.371-.073.126 0 .229.012.309.037.079.024.142.067.186.127.044.06.074.139.09.236l.024.359v2.716l.049.118.115.053h.997l.12-.053.053-.118zm-6.238-1.881c0 .67-.243 1.005-.729 1.005-.241 0-.423-.084-.549-.253-.126-.169-.189-.42-.189-.752v-.573c0-.333.063-.582.189-.748.126-.166.308-.25.549-.25.486 0 .729.333.729.998v.573zm1.335-.573c0-.327-.046-.621-.136-.883-.091-.262-.223-.484-.396-.667-.173-.182-.388-.324-.644-.425-.256-.101-.552-.152-.887-.152-.335 0-.632.05-.887.152-.256.101-.472.242-.648.425-.177.182-.31.405-.401.667-.091.262-.136.556-.136.883v.572c0 .327.045.621.136.883.09.262.224.484.401.667.176.182.392.324.648.425.256.101.552.152.887.152.336 0 .632-.05.887-.152.256-.101.47-.242.644-.425.173-.182.305-.405.396-.667.091-.262.136-.556.136-.883v-.572zm-4.573 2.388v-.728l-.045-.102-.111-.037h-.016l-.441.041c-.14.011-.329.016-.564.016-.093 0-.181-.015-.264-.045-.082-.03-.154-.082-.214-.155s-.109-.172-.144-.294c-.036-.123-.054-.274-.054-.454v-.687c0-.18.018-.332.054-.454.036-.123.084-.221.144-.295.06-.073.132-.125.214-.155.082-.03.17-.045.264-.045.236 0 .424.005.564.016l.441.041h.016l.111-.037.045-.102v-.728l-.042-.127-.132-.061-.449-.082c-.184-.027-.399-.041-.647-.041-.582 0-1.048.177-1.396.532-.349.355-.523.867-.523 1.537v.687c0 .67.174 1.183.523 1.537.349.355.814.532 1.396.532.247 0 .463-.014.647-.041l.449-.082.132-.061.042-.126zm-4.054.065v-2.723c0-.256-.021-.498-.062-.724-.042-.226-.115-.422-.222-.589-.107-.166-.255-.298-.445-.396-.189-.098-.432-.147-.729-.147-.264 0-.497.032-.701.095-.203.063-.418.175-.643.333v-.198l-.049-.115-.115-.05h-.923l-.115.049-.049.115v4.35l.054.119.12.053h.997l.115-.053.049-.118v-3.215c.143-.076.277-.139.404-.187.126-.049.25-.073.371-.073.126 0 .229.012.309.037.079.024.141.067.185.127.044.06.075.139.09.236l.025.359v2.716l.049.118.115.053h.997l.12-.053.054-.118zm-6.353-.932l-.317.127c-.113.036-.232.053-.359.053-.176 0-.306-.024-.392-.073-.085-.049-.128-.161-.128-.335v-.075l.033-.262c.022-.076.06-.139.115-.188.055-.049.129-.085.222-.11.093-.024.211-.037.354-.037h.47v.9zm1.31-1.979c0-.299-.045-.555-.136-.764-.09-.21-.218-.381-.383-.515-.165-.133-.366-.232-.606-.294-.239-.062-.506-.094-.803-.094-.275 0-.542.019-.803.057-.261.038-.468.076-.622.115-.104.027-.156.087-.156.18v.662l.042.115.107.033h.041l.247-.021.334-.021.387-.012.399-.004c.192 0 .343.036.453.106.11.071.165.224.165.458v.295h-.445c-.708 0-1.224.11-1.545.331-.321.221-.482.571-.482 1.05v.074c0 .267.04.49.12.67.079.18.186.324.317.433.132.109.282.187.449.233.167.046.342.07.523.07.247 0 .46-.033.638-.098s.348-.155.507-.27v.131l.049.115.115.049h.923l.115-.049.049-.115-.001-2.919zm-5.884 1.292c0 .229-.081.406-.243.532-.162.125-.454.188-.878.188h-.136l-.198-.004-.198-.004h-.144v-1.529h.923c.33 0 .558.072.684.216.126.144.189.315.189.511v.091zm-.033-2.437c0 .087-.013.17-.042.25-.027.079-.073.147-.136.204-.064.057-.148.104-.255.139-.107.036-.243.053-.408.053h-.923v-1.415l.128-.004.181-.004h.317c.423 0 .718.053.886.159.167.106.252.271.252.495v.123zm1.401 2.347c0-.284-.067-.528-.202-.736-.134-.207-.311-.365-.531-.474.22-.109.39-.27.511-.482.121-.213.181-.452.181-.719v-.147c0-.327-.063-.599-.189-.818-.126-.218-.304-.393-.531-.523-.228-.131-.501-.225-.82-.282-.319-.057-.673-.085-1.063-.085l-.412.008-.416.021-.371.028-.276.033c-.159.027-.272.076-.338.147s-.099.199-.099.384v4.971c0 .185.034.313.103.384.068.071.185.12.35.147l.296.041.375.028.416.021.42.008c.357 0 .693-.027 1.01-.082.316-.055.59-.152.824-.29.233-.139.419-.327.556-.564.137-.237.206-.536.206-.895l-.001-.123z" fill="#005596"/></g></svg>