<svg width="70" height="40" viewBox="0 0 70 40" xmlns="http://www.w3.org/2000/svg"><title>boekenbon</title><desc>Created with Sketch.</desc><g fill="none"><g id="Group"><path id="Shape" fill="#016736" d="M12.835 12.369l.045 5.922-5.73 2.239-.805-6.561z"/><path id="Shape" fill="#FBAD1D" d="M7.665 15.937l.686 6.38 4.565 4.664-.095-7.405z"/><path id="Shape" fill="#FDED0A" d="M2 18.12l4.487-1.886 5.135 3.819-5.399 2.264z"/><path id="Shape" fill="#B92236" d="M14.443 12.354v6.131l4.614 3.159.968-6.806z"/><path id="Shape" fill="#ED3026" d="M14.981 11.934l5.835 2.525 4.234-.934-5.925-2.398z"/><path id="Shape" fill="#223B73" d="M14.446 26.457v-7.499l6.939-2.498-1.019 6.804z"/><path id="Shape" fill="#1F75BC" d="M14.928 19.954l4.402 3.024 7.491-3.387-4.633-2.38z"/><path id="Shape" fill="#04A84F" d="M12.012 11.965l-6.357 1.611-3.075-.785 6.998-1.76z"/></g><g fill-rule="nonzero"><g id="Group" fill="#2C2929"><path d="M28.116 12.3h1.629c.854 0 1.502.175 1.942.524.44.349.661.831.661 1.446 0 .735-.375 1.3-1.125 1.697 1.205.255 1.808.898 1.808 1.931 0 .618-.236 1.11-.708 1.476-.472.366-1.111.548-1.917.548h-2.289v-7.621zm.605.491v3.039h.84c1.422 0 2.133-.505 2.133-1.517 0-1.015-.718-1.522-2.155-1.522h-.817zm0 3.535v3.104h1.618c.668 0 1.176-.14 1.523-.42.347-.28.521-.655.521-1.124 0-1.04-.769-1.56-2.306-1.56h-1.355zM37.993 12.202c1.156 0 2.136.379 2.94 1.137.804.758 1.205 1.683 1.205 2.774 0 1.087-.402 2.01-1.205 2.769-.804.758-1.783 1.137-2.94 1.137-1.152 0-2.128-.379-2.928-1.137-.8-.758-1.2-1.681-1.2-2.769 0-1.091.4-2.016 1.2-2.774.8-.758 1.776-1.137 2.928-1.137zm.022 7.272c.973 0 1.794-.325 2.464-.974.669-.649 1.004-1.445 1.004-2.387 0-.946-.335-1.743-1.004-2.392-.669-.649-1.491-.974-2.464-.974-.977 0-1.804.325-2.481.974-.677.649-1.015 1.447-1.015 2.392 0 .942.338 1.738 1.015 2.387.677.649 1.504.974 2.481.974zM47.903 12.3v.491h-3.661v3.05h3.566v.496h-3.566v3.093h3.75v.491h-4.355v-7.621zM54.324 12.3l-3.744 3.807 4.102 3.814h-.769l-4.095-3.808v3.808h-.605v-7.621h.605v3.792l3.752-3.792zM59.608 12.3v.491h-3.661v3.05h3.566v.496h-3.566v3.093h3.75v.491h-4.355v-7.621zM67.987 12.3v7.621h-.498l-5.945-6.661v6.661h-.605v-7.621h.512l5.931 6.661v-6.661z" id="Shape"/></g><g fill="#838589"><path d="M28.116 21.277h1.629c.854 0 1.502.175 1.942.524.44.349.661.831.661 1.446 0 .735-.375 1.3-1.125 1.697 1.205.255 1.808.898 1.808 1.931 0 .618-.236 1.11-.708 1.476-.472.366-1.111.548-1.917.548h-2.289v-7.621zm.605.491v3.039h.84c1.422 0 2.133-.505 2.133-1.517 0-1.015-.718-1.522-2.155-1.522h-.817zm0 3.535v3.104h1.618c.668 0 1.176-.14 1.523-.42.347-.28.521-.655.521-1.124 0-1.04-.769-1.56-2.306-1.56h-1.355zM37.993 21.179c1.156 0 2.136.379 2.94 1.137.804.758 1.205 1.683 1.205 2.774 0 1.088-.402 2.01-1.205 2.769-.804.758-1.783 1.137-2.94 1.137-1.152 0-2.128-.379-2.928-1.137-.8-.758-1.2-1.681-1.2-2.769 0-1.091.4-2.016 1.2-2.774.8-.758 1.776-1.137 2.928-1.137zm.022 7.272c.973 0 1.794-.325 2.464-.974.669-.649 1.004-1.445 1.004-2.387 0-.946-.335-1.743-1.004-2.392-.669-.649-1.491-.974-2.464-.974-.977 0-1.804.325-2.481.974-.677.649-1.015 1.447-1.015 2.392 0 .942.338 1.738 1.015 2.387.677.649 1.504.974 2.481.974zM49.817 21.277v7.621h-.521l-5.343-6.661v6.661h-.619v-7.621h.534l5.33 6.661v-6.661z"/></g></g></g></svg>