<svg width="70" height="40" viewBox="0 0 70 40" xmlns="http://www.w3.org/2000/svg"><title>directdebit-en</title><desc>Created with Sketch.</desc><path d="M14.414 7.727v11.273h4.07c3.359 0 5.305-2.07 5.305-5.672 0-3.547-1.961-5.602-5.305-5.602h-4.07zm1.75 1.594h2.125c2.336 0 3.719 1.484 3.719 4.031 0 2.586-1.359 4.055-3.719 4.055h-2.125v-8.086zm9.434 9.68h1.672v-8.508h-1.672v8.508zm.836-10c.625 0 1.086-.445 1.086-1.023 0-.586-.461-1.031-1.086-1.031s-1.086.445-1.086 1.031c0 .578.461 1.023 1.086 1.023zm2.919 10h1.68v-5.023c0-1.195.898-2 2.172-2 .297 0 .797.055.938.102v-1.656c-.18-.047-.5-.07-.75-.07-1.109 0-2.055.609-2.297 1.445h-.125v-1.305h-1.617v8.508zm9.294-7.242c1.242 0 2.055.867 2.094 2.203h-4.297c.094-1.328.961-2.203 2.203-2.203zm2.086 4.945c-.313.664-1.008 1.031-2.023 1.031-1.344 0-2.211-.945-2.266-2.438v-.094h6.008v-.586c0-2.672-1.43-4.289-3.797-4.289-2.398 0-3.922 1.727-3.922 4.445 0 2.719 1.492 4.391 3.93 4.391 1.945 0 3.305-.938 3.688-2.461h-1.617zm10.552-3.43c-.219-1.703-1.508-2.945-3.641-2.945-2.477 0-3.984 1.664-3.984 4.391 0 2.773 1.516 4.445 3.992 4.445 2.102 0 3.414-1.188 3.633-2.898h-1.633c-.219.914-.945 1.398-2.008 1.398-1.398 0-2.266-1.102-2.266-2.945 0-1.813.859-2.891 2.266-2.891 1.125 0 1.813.617 2.008 1.445h1.633zm2.247-4.898v2.156h-1.352v1.414h1.352v4.805c0 1.641.742 2.297 2.609 2.297.328 0 .641-.039.914-.086v-1.398c-.234.023-.383.039-.641.039-.836 0-1.203-.391-1.203-1.281v-4.375h1.844v-1.414h-1.844v-2.156h-1.68zm-37.235 13.352l-2.391 11.273h4.797c3.336 0 5.852-2.758 5.852-6.492 0-2.984-1.766-4.781-4.805-4.781h-3.453zm1.461 1.578h1.727c2.063 0 3.266 1.258 3.266 3.359 0 2.773-1.734 4.758-4.086 4.758h-2.672l1.766-8.117zm11.333 9.859c2.023 0 3.414-1.031 3.781-2.453h-1.703c-.32.602-.945.984-1.969.984-1 0-2-.641-2-2.203l.008-.344h6.055c.055-.359.109-.984.109-1.328-.008-2.195-1.508-3.492-3.359-3.492-2.633 0-4.484 2.109-4.484 5.234 0 2.297 1.555 3.602 3.563 3.602zm-1.68-5.25c.359-1.289 1.281-2.156 2.492-2.156 1.172 0 1.805.828 1.805 1.82l-.023.336h-4.273zm11.395 5.227c2.422 0 4.305-2.375 4.305-5.516 0-1.938-1.266-3.273-2.969-3.273-1.133 0-2.016.469-2.625 1.313h-.133l.945-4.492h-1.68l-2.516 11.828h1.625l.336-1.555h.133c.32 1 1.391 1.695 2.578 1.695zm-.242-1.523c-1.188 0-1.953-.789-1.953-2.109 0-2.031 1.266-3.656 2.875-3.656 1.156 0 1.875.742 1.875 2.055 0 2.117-1.211 3.711-2.797 3.711zm5.27 1.383h1.68l1.805-8.508h-1.68l-1.805 8.508zm3.195-10c.625 0 1.078-.461 1.078-1.039 0-.57-.453-1.016-1.078-1.016s-1.086.461-1.086 1.039c0 .57.461 1.016 1.086 1.016zm3.794 10.047c.375 0 .742-.023.984-.086l.281-1.383c-.188.023-.375.031-.625.031-.648 0-1.016-.25-1.016-.836 0-.18.023-.398.078-.648l.906-4.18h1.875l.297-1.414h-1.891l.461-2.156h-1.695l-.445 2.156h-1.406l-.289 1.414h1.406l-1 4.609c-.055.266-.086.516-.086.734 0 1.148.891 1.758 2.164 1.758z" fill="#18799F"/></svg>