<svg width="70" height="40" viewBox="0 0 70 40" xmlns="http://www.w3.org/2000/svg"><title>e-invoicing</title><desc>Created with Sketch.</desc><path d="M6.963 23.705h-4.393v-2.749h4.158v-1.231h-4.158v-2.59h4.393v-1.295h-5.814v9.16h5.814v-1.295zm5.768-1.727v-1.339h-4.164v1.339h4.164zm2.867 3.021l1.949-9.16h-1.441l-1.949 9.16h1.441zm1.8 0h1.377l.889-4.151c.209-.946.889-1.644 1.86-1.644.844 0 1.314.514 1.314 1.257 0 .184-.025.381-.076.609l-.838 3.929h1.377l.882-4.17c.057-.286.089-.559.089-.806 0-1.117-.787-2.05-2.101-2.05-1.009 0-1.663.521-2.101 1.174h-.102l.222-1.06h-1.327l-1.466 6.913zm8.091-6.913l1.003 6.913h1.504l3.923-6.913h-1.492l-2.799 5.3h-.108l-.654-5.3h-1.377zm7.735 4.018c0-1.72.908-2.939 2.209-2.939.978 0 1.562.717 1.562 1.904 0 1.562-.971 2.844-2.158 2.844-.978 0-1.612-.711-1.612-1.809zm1.479 3.028c2.152 0 3.732-1.803 3.732-4.253 0-1.752-1.168-2.926-2.901-2.926-2.177 0-3.745 1.784-3.745 4.247 0 1.752 1.181 2.933 2.914 2.933zm4.358-.133h1.365l1.466-6.913h-1.365l-1.466 6.913zm2.596-8.125c.508 0 .876-.375.876-.844 0-.463-.368-.825-.876-.825s-.882.375-.882.844c0 .463.375.825.882.825zm7.304 3.447l-.025-.292c-.171-1.136-1.238-2.076-2.717-2.076-2.165 0-3.701 1.822-3.701 4.259 0 1.765 1.136 2.92 2.869 2.92 1.625 0 2.831-.952 3.098-2.272h-1.365c-.241.673-.844 1.047-1.631 1.047-.939 0-1.574-.66-1.574-1.841 0-1.638.927-2.895 2.203-2.895.806 0 1.441.463 1.498 1.149h1.346zm.309 4.678h1.365l1.466-6.913h-1.365l-1.466 6.913zm2.596-8.125c.508 0 .876-.375.876-.844 0-.463-.368-.825-.876-.825s-.882.375-.882.844c0 .463.375.825.882.825zm.48 8.125h1.377l.889-4.151c.209-.946.889-1.644 1.86-1.644.844 0 1.314.514 1.314 1.257 0 .184-.025.381-.076.609l-.838 3.929h1.377l.882-4.17c.057-.286.089-.559.089-.806 0-1.117-.787-2.05-2.101-2.05-1.009 0-1.663.521-2.101 1.174h-.102l.222-1.06h-1.327l-1.466 6.913zm10.185 2.634c1.847 0 3.066-.895 3.371-2.323l1.555-7.224h-1.327l-.267 1.244h-.108c-.267-.8-1.143-1.358-2.107-1.358-1.936 0-3.428 1.771-3.428 4.215 0 1.606 1.073 2.698 2.469 2.698.87 0 1.581-.336 2.063-1.016l.108.006-.292 1.25c-.197.832-.806 1.39-1.942 1.39-.952 0-1.523-.406-1.606-.908h-1.403c.051 1.117 1.212 2.025 2.914 2.025zm.66-3.891c-.952 0-1.555-.66-1.555-1.752 0-1.669.927-2.78 2.196-2.78.984 0 1.612.667 1.612 1.714 0 1.65-.978 2.818-2.253 2.818z" fill="#18799F"/></svg>