<svg width="70" height="40" viewBox="0 0 70 40" xmlns="http://www.w3.org/2000/svg"><title>ferbuy</title><desc>Created with Sketch.</desc><g fill="none"><path id="Shape" fill="#1F4566" d="M3.335 15.588h7.185l-.437 2.244h-4.548l-.564 2.882h4.275l-.437 2.226h-4.257l-.928 4.944h-2.619zM16.396 27.373c-1.037.529-2.328.712-3.311.712-2.547 0-3.856-1.46-3.856-3.776 0-2.718 1.965-5.545 5.184-5.545 1.801 0 3.092 1.003 3.092 2.663 0 2.28-2.201 3.102-5.766 3.01 0 .256.091.657.273.912.346.456.946.693 1.71.693.964 0 1.783-.219 2.492-.566l.182 1.897zm-1.346-5.947c0-.438-.364-.748-.964-.748-1.219 0-1.91 1.003-2.092 1.842 2.037.018 3.056-.273 3.056-1.077v-.018zM17.268 27.884l1-5.309c.255-1.35.364-2.846.455-3.612h2.274l-.164 1.824h.055c.618-1.186 1.619-2.025 2.838-2.025.164 0 .327 0 .491.018l-.509 2.554-.418-.018c-1.674 0-2.456 1.496-2.783 3.247l-.618 3.32h-2.619zM25.581 15.789c.873-.164 2.001-.292 3.22-.292 1.273 0 2.219.164 3.038.657.819.419 1.419 1.204 1.419 2.244 0 1.551-1.146 2.536-2.474 2.919v.055c1.182.365 1.928 1.332 1.928 2.682 0 1.313-.709 2.28-1.674 2.919-1.037.693-2.583 1.003-4.62 1.003-1.382 0-2.492-.11-3.092-.237l2.255-11.949zm.655 10.07c.309.037.618.055 1 .055 1.419 0 2.71-.566 2.71-1.934 0-1.222-1.019-1.587-2.237-1.587h-.819l-.655 3.466zm1.055-5.382h.873c1.437 0 2.419-.62 2.419-1.66 0-.894-.728-1.277-1.728-1.277-.455 0-.819.036-1.019.091l-.546 2.846zM42.643 18.963l-1.146 6.02c-.218 1.131-.346 2.098-.473 2.901h-2.31l.164-1.459h-.036c-.909 1.168-2.001 1.66-3.074 1.66-1.419 0-2.274-.803-2.274-2.499 0-.492.055-1.021.182-1.642l.928-4.98h2.619l-.891 4.779c-.073.401-.127.839-.127 1.168 0 .584.218 1.04.891 1.04.891 0 1.801-1.076 2.147-2.864l.782-4.123h2.62zM45.68 18.963l.546 3.886c.127.912.218 1.55.291 2.116h.036c.2-.529.4-1.113.782-2.079l1.619-3.922h2.765l-3.183 6.403c-1.182 2.372-2.237 3.995-3.42 5.108-1.037.985-2.274 1.423-2.856 1.514l-.582-2.244c.419-.128 1.001-.347 1.51-.712.6-.419 1.11-.948 1.437-1.55.091-.128.091-.237.054-.438l-1.764-8.081h2.765z"/><path d="M61.668 16.648c0 .491-.397.89-.887.89h-1.868c-.49 0-.887-.399-.887-.89v-1.873c0-.492.397-.89.887-.89h1.868c.49 0 .887.399.887.89v1.873z" id="Shape" fill="#008ACF"/><path d="M66.133 15.477c0 .492-.397.89-.887.89h-1.867c-.491 0-.888-.398-.888-.89v-1.873c0-.492.397-.89.888-.89h1.867c.49 0 .887.399.887.89v1.873zM56.406 13.524c0 .41-.331.742-.74.742h-1.556c-.409 0-.74-.332-.74-.742v-1.561c0-.41.331-.742.74-.742h1.556c.409 0 .74.332.74.742v1.561z" id="Shape" fill="#1F4566"/><path d="M59.989 11.617c0 .409-.331.742-.739.742h-1.556c-.409 0-.74-.332-.74-.742v-1.561c0-.41.331-.742.74-.742h1.556c.408 0 .739.332.739.742v1.561z" id="Shape" fill="#F59C29"/><path d="M55.83 9.612c0 .287-.232.519-.518.519h-1.09c-.286 0-.517-.232-.517-.519v-1.093c0-.287.232-.519.517-.519h1.09c.286 0 .518.232.518.519v1.093z" id="Shape" fill="#008ACF"/><path d="M52.343 10.384c0 .287-.232.519-.518.519h-1.089c-.286 0-.518-.232-.518-.519v-1.092c0-.287.232-.519.518-.519h1.089c.286 0 .518.232.518.519v1.092z" id="Shape" fill="#F59C29"/><path d="M54.963 19.543v5.31c0 .973.85 1.644 1.987 1.763h6.936c1.474 0 2.673 1.064 2.673 2.372h-1.324c0-.66-.605-1.197-1.349-1.197h-5.621c-.744 0-1.348.537-1.348 1.197h-1.325c0-.485.165-.936.448-1.312-1.385-.352-2.402-1.483-2.402-2.824v-5.31c0-.351-.117-.677-.316-.952l.896-.903c.465.506.745 1.152.745 1.855z" id="Shape" fill="#1F4566"/><path d="M51.652 16.604c1.034 0 1.958.423 2.566 1.085l-.896.903c-.353-.488-.97-.812-1.67-.812h-.5s-.424.029-.424-.593c0-.594.424-.583.424-.583h.5z" id="Shape" fill="#F59C29"/><path d="M57.64 27.929c-.429.201-.723.6-.723 1.059h-.456c.067-.552.559-.992 1.178-1.059zM63.424 26.745h-6.937c-1.095 0-1.987-.791-1.987-1.763v-5.311c0-.621-.219-1.196-.591-1.671l.309-.311c.465.506.745 1.152.745 1.855v5.31c0 .973.892 1.763 1.987 1.763h6.936c1.474 0 2.673 1.064 2.673 2.372h-.471c-.076-1.248-1.241-2.244-2.666-2.244z" id="Shape" fill="#1F4566"/><path d="M53.755 17.817c-.608-.661-1.091-1.085-2.125-1.085h-.758c.123-.131.281-.128.281-.128h.5c1.034 0 1.958.423 2.566 1.085l-.309.311-.154-.183z" id="Shape" fill="#FCCC2E"/><path d="M55.484 18.371v6.226c0 .778.644 1.409 1.438 1.409h8.906c.794 0 1.245-.561 1.438-1.409 1.333-4.947 1.724-5.184 1.724-5.574v-.049c0-.333-.276-.604-.616-.604h-12.889zm9.957 6.116l1.232-4.839c.058-.27.204-.447.456-.447s.456.2.456.447l-1.233 4.839c0 .248-.204.448-.456.448s-.456-.2-.456-.448zm-1.797 0l1.027-4.839c.028-.247.204-.447.456-.447.253 0 .456.2.456.447l-1.027 4.839c0 .248-.204.448-.456.448s-.457-.2-.457-.448zm-1.797 0l.821-4.839c.025-.254.204-.447.457-.447.252 0 .456.2.456.447l-.822 4.839c0 .248-.204.448-.456.448s-.457-.2-.457-.448zm-1.797 0l.616-4.839c.028-.254.205-.447.457-.447s.456.2.456.447l-.616 4.839c0 .248-.205.448-.457.448s-.457-.2-.457-.448zm-1.797 0l.411-4.839c0-.247.205-.447.457-.447s.457.2.457.447l-.411 4.839c0 .248-.204.448-.456.448s-.457-.2-.457-.448zm-1.797 0l.205-4.839c0-.247.205-.447.457-.447s.456.2.456.447l-.205 4.839c0 .248-.204.448-.457.448-.252 0-.457-.2-.457-.448z" id="Shape" fill="#1F4566"/><path d="M64.288 29.601c-.332-.816.059-1.747.873-2.08.814-.332 1.743.059 2.074.875.332.816-.059 1.748-.873 2.081-.814.332-1.742-.059-2.074-.876z" id="Shape" stroke="#fff" fill="#F59C29"/><path d="M66.803 28.198c-.38-.378-.963-.515-1.489-.3-.552.226-.878.773-.854 1.338.007.153 2.468-.912 2.343-1.038z" id="Shape" fill="#FCCC2E"/><path d="M55.345 29.601c-.332-.816.059-1.747.873-2.08.814-.332 1.743.059 2.074.875.332.816-.059 1.748-.873 2.081-.813.332-1.742-.059-2.074-.876z" id="Shape" stroke="#fff" fill="#F59C29"/><path d="M57.86 28.198c-.38-.378-.963-.515-1.489-.3-.552.226-.878.773-.854 1.338.007.153 2.468-.912 2.343-1.038z" id="Shape" fill="#FCCC2E"/><path d="M1 32.05c.128.027.364.047.659.047.434 0 .763-.062.984-.214.205-.136.356-.338.356-.622 0-.288-.159-.493-.411-.571v-.012c.287-.082.527-.291.527-.622 0-.221-.128-.392-.302-.482-.174-.101-.372-.136-.647-.136-.256 0-.5.023-.686.062l-.48 2.549zm.961-2.16l.221-.016c.213 0 .364.082.364.268 0 .225-.209.357-.515.357h-.186l.116-.61zm-.201 1.018h.174c.26 0 .477.078.477.338 0 .291-.275.412-.577.412l-.213-.008.139-.742zm2.967-.731l-.167.882c-.074.377-.267.606-.456.606-.139 0-.189-.097-.189-.218l.027-.252.193-1.018h-.557l-.202 1.061c-.027.132-.039.249-.039.35 0 .361.182.532.488.532.228 0 .456-.105.65-.354l.008.004-.035.307h.493c.023-.171.054-.377.101-.618l.24-1.282h-.554zm.791 0l.372 1.725-.008.093c-.074.128-.182.241-.31.33-.108.074-.232.12-.322.148l.124.482c.124-.019.387-.117.608-.326.252-.237.477-.579.728-1.084l.678-1.368h-.589l-.345.839-.167.443h-.008l-.062-.455-.116-.828h-.585zm3.073 1.9l.16-.843c.077-.42.29-.649.472-.649.143 0 .189.093.189.229l-.019.21-.201 1.053h.561l.209-1.103.031-.319c0-.33-.178-.521-.488-.521-.251 0-.483.113-.661.358h-.008l.035-.315h-.493c-.027.171-.054.377-.105.618l-.24 1.282h.558zm2.824-1.947c-.674 0-1.131.544-1.131 1.201 0 .474.321.789.802.789.655 0 1.131-.509 1.131-1.204 0-.435-.295-.785-.802-.785zm-.074.428c.221 0 .298.186.298.361 0 .323-.174.773-.473.773-.198 0-.306-.148-.306-.369 0-.295.159-.765.481-.765zm1.154-.381l.178 1.9h.527l.322-.688.225-.583h.008c0 .225 0 .408.016.61l.054.661h.523l.922-1.9h-.562l-.325.789c-.078.221-.143.412-.205.622h-.011c.011-.206.004-.389-.004-.614l-.047-.797h-.457l-.372.824c-.081.194-.167.385-.232.587h-.008l.02-.606-.004-.804h-.565z" id="Shape" fill="#1F4566"/><path d="M16.304 32.846l.151-.804h.012c.066.039.197.078.349.078.661 0 1.099-.606 1.099-1.263 0-.393-.202-.723-.612-.723-.228 0-.452.113-.607.319h-.008l.035-.291h-.5c-.023.194-.066.524-.109.75l-.368 1.935h.558zm.311-1.651c.07-.373.263-.606.472-.606.178 0 .243.159.243.311 0 .373-.232.797-.529.797-.112 0-.194-.035-.256-.089l.07-.412zm3.218.882c-.008-.237.031-.61.078-.855l.198-.995c-.159-.051-.399-.093-.628-.093-.93 0-1.356.684-1.356 1.325 0 .396.233.66.573.66.221 0 .465-.105.639-.42h.008l-.023.377h.511zm-.438-1.064c-.089.466-.295.657-.461.657-.155 0-.229-.128-.229-.315 0-.353.263-.796.624-.796l.151.015-.085.439zm.949-.835l.372 1.725-.008.093c-.074.128-.182.241-.31.33-.108.074-.232.12-.322.148l.124.482c.124-.019.387-.117.608-.326.252-.237.477-.579.728-1.084l.678-1.368h-.589l-.345.839-.167.443h-.008l-.062-.455-.116-.828h-.585zm3.076 1.9l.527-2.758h-.558l-.527 2.758h.558zm2.224 0c-.008-.237.031-.61.078-.855l.198-.995c-.159-.051-.399-.093-.628-.093-.93 0-1.356.684-1.356 1.325 0 .396.232.66.573.66.221 0 .465-.105.639-.42h.008l-.023.377h.511zm-.438-1.064c-.089.466-.295.657-.461.657-.155 0-.229-.128-.229-.315 0-.353.263-.796.624-.796l.151.015-.085.439zm1.336-1.193l-.07.357h-.244l-.078.427h.24l-.143.751c-.031.147-.043.252-.043.352 0 .241.159.412.496.412.116 0 .256-.016.329-.043l.062-.439-.151.008c-.124 0-.163-.065-.163-.159l.031-.24.128-.642h.403l.085-.428h-.407l.097-.513-.573.156zm2.379 1.744c-.151.074-.325.12-.531.12-.163 0-.291-.051-.364-.148l-.062-.194c.763.019 1.232-.155 1.232-.637 0-.354-.275-.571-.659-.571-.686 0-1.104.602-1.104 1.181 0 .497.279.804.818.804.213 0 .488-.039.709-.152l-.039-.404zm-.248-.862c0 .179-.217.237-.655.233.039-.175.19-.392.449-.392.128 0 .205.066.205.159zm1.201 1.375l.132-.707c.07-.373.236-.692.593-.692l.089.004.109-.544-.105-.004c-.26 0-.469.179-.604.431h-.012l.035-.389h-.484c-.019.163-.043.482-.097.769l-.213 1.131h.558z" fill="#F59C29"/></g></svg>