<svg width="70" height="40" viewBox="0 0 70 40" xmlns="http://www.w3.org/2000/svg"><title>ing-homepay</title><desc>Created with Sketch.</desc><g fill="none"><path d="M67.328 10.51h-64.711c-.893 0-1.618.723-1.618 1.616v16.158c0 .892.724 1.616 1.618 1.616h64.711c.893 0 1.618-.724 1.618-1.616v-16.158c0-.892-.724-1.616-1.618-1.616" fill="#F36717"/><path d="M65.894 13.395h-32.294c-.894 0-1.618.723-1.618 1.616l-.013 11.85h32.368c.894 0 1.618-.723 1.618-1.616l-.062-11.85" fill="#fff"/><path d="M15.904 16.405c1.133 0 1.103.506 1.103 1.697v2.947c0 .208 0 .298.03.446l-5.276-5.418h-2.831v.327c1.192 0 1.192.744 1.192 1.429v4.585c0 1.161 0 1.697-1.133 1.697v.327h3.01v-.327c-1.133 0-1.133-.447-1.133-1.697v-4.019c0-.179 0-.328-.03-.506l6.408 6.609h.507v-6.401c0-1.22.06-1.697 1.163-1.697v-.327h-3.011v.327zm-12.727 0c.835 0 1.222.03 1.222 1.102v5.508c0 1.042-.507 1.101-1.222 1.101v.327h4.233v-.327c-.775 0-1.222-.06-1.222-1.101v-5.508c0-1.072.358-1.102 1.222-1.102v-.327h-4.233v.327zm22.116 3.692v.328c1.013 0 1.133.268 1.133.982v2.203c-.596.268-1.073.387-1.61.387-1.788 0-3.13-1.518-3.13-3.721 0-2.233 1.103-3.721 2.981-3.721.894 0 1.669.298 2.236.863.358.328.626.804.775 1.369h.358l-.268-2.888h-.298c-.03.208-.089.566-.298.566-.238 0-.477-.149-.865-.268-.536-.178-1.043-.298-1.729-.298-2.742 0-4.888 2.084-4.888 4.585 0 2.322 1.877 4.168 5.007 4.168 1.133 0 2.265-.298 3.457-.893v-2.144c0-.893-.03-1.191.924-1.191v-.328h-3.785z" fill="#fff"/><path fill="#15356F" d="M33.794 22.644v-4.733h.447v2.031h2.8v-2.031h.447v4.733h-.447v-2.321h-2.8v2.321h-.447"/><path d="M38.265 20.942c0-.993.526-1.795 1.578-1.795 1.065 0 1.578.795 1.578 1.795 0 1.078-.625 1.795-1.578 1.795-.868-.013-1.578-.605-1.578-1.795zm1.578-1.44c-.828 0-1.157.703-1.157 1.44 0 .848.401 1.44 1.157 1.44.828 0 1.157-.71 1.157-1.44-.007-.802-.322-1.44-1.157-1.44z" fill="#15356F"/><path d="M42.485 22.644h-.395v-3.405h.395v.513h.013c.204-.388.611-.605 1.052-.605.631 0 .855.296.999.657.224-.44.625-.657 1.111-.657.927 0 1.058.664 1.058 1.348v2.15h-.395v-2.354c0-.486-.171-.789-.73-.789-.289 0-.572.125-.769.388-.171.224-.224.638-.224.92v1.834h-.395v-2.354c0-.486-.171-.789-.73-.789-.289 0-.572.125-.769.388-.171.224-.223.638-.223.92v1.834" fill="#15356F"/><path d="M47.863 21.034c-.007.736.388 1.348 1.144 1.348.513 0 .914-.283 1.032-.782h.44c-.197.644-.605 1.137-1.473 1.137-1.091 0-1.565-.776-1.565-1.782 0-.993.592-1.808 1.565-1.808.933 0 1.505.664 1.499 1.887h-2.643zm2.222-.329c0-.664-.368-1.203-1.078-1.203-.697 0-1.065.559-1.144 1.203h2.222z" fill="#15356F"/><path d="M51.875 18.687c0 .381-.233.618-.548.703v-.243c.12-.066.256-.171.256-.434v-.223h-.256v-.579h.548v.776" fill="#15356F"/><path d="M55.923 20.589c-.275.231-.666.347-1.175.347h-.976v1.709h-.986v-4.743h2.02c.465 0 .837.122 1.114.366.277.244.415.623.415 1.135 0 .559-.137.955-.412 1.186zm-.759-1.717c-.123-.106-.295-.16-.517-.16h-.876v1.413h.876c.222 0 .394-.058.517-.173.123-.115.185-.297.185-.547 0-.25-.062-.428-.185-.534z" fill="#15356F"/><path d="M58.45 20.502c.17-.022.291-.049.364-.081.131-.056.197-.144.197-.263 0-.145-.05-.245-.15-.3-.1-.055-.247-.083-.441-.083-.218 0-.372.054-.462.161-.065.079-.108.186-.129.321h-.887c.019-.303.106-.552.258-.747.243-.305.66-.458 1.252-.458.385 0 .727.074 1.026.222.299.148.448.435.448.86v1.621l.006.408c.006.12.024.202.054.244l.132.106v.131h-.99l-.058-.196-.026-.209c-.127.139-.274.257-.439.354-.198.115-.422.172-.672.172-.319 0-.582-.092-.79-.274-.208-.183-.312-.442-.312-.778 0-.435.167-.75.5-.945.183-.106.451-.182.806-.227l.313-.039zm.558.43l-.176.09-.244.064-.207.039c-.194.035-.333.077-.417.127-.142.085-.213.216-.213.395 0 .159.043.274.131.344.087.071.193.106.318.106.198 0 .38-.059.547-.176.167-.117.254-.332.26-.643v-.346z" fill="#15356F"/><path d="M60.852 23.324l.117.005.261-.011c.083-.011.152-.036.209-.075.055-.037.105-.114.152-.231l.064-.215-1.288-3.659h1.017l.766 2.585.723-2.585h.973l-1.202 3.447c-.231.662-.415 1.073-.552 1.232-.137.159-.409.239-.819.239l-.198-.001-.224-.01v-.723" fill="#15356F"/></g></svg>