<svg width="70" height="40" viewBox="0 0 70 40" xmlns="http://www.w3.org/2000/svg"><title>kbc</title><desc>Created with Sketch.</desc><g fill="none"><path d="M35.226 18.174c4.19 0 7.587-3.396 7.587-7.587 0-4.19-3.397-7.587-7.587-7.587-4.19 0-7.587 3.397-7.587 7.587 0 4.191 3.397 7.587 7.587 7.587M40.822 16.725c-1.446 1.568-3.995 3.134-7.266 3.134-2.538 0-4.722-.986-6.112-2.082-8.283.869-14.444 2.102-14.444 2.102v3.355l43.945-.005v-6.917s-7.53-.046-16.123.413" id="Shape" fill="#00AEEF"/><path id="Shape" fill="#003768" d="M18.22 33.042v4.087h-5.22v-10.873h5.22v4.893h.03l3.072-4.893h6.26l-4.583 5.619 4.324 5.254h-5.973l-3.095-4.087h-.036M56.948 36.68c-1.231.376-2.851.598-4.3.598-5.164 0-8.957-1.468-8.957-5.738 0-3.859 3.676-5.535 8.701-5.535 1.396 0 3.169.155 4.556.597l-.002 3.738c-1.028-.624-2.056-1.01-3.529-1.01-1.916 0-3.831.943-3.831 2.313 0 1.373 1.906 2.313 3.831 2.313 1.448 0 2.501-.401 3.529-.994l.002 3.717"/><path d="M28.438 26.256h10.553c2.742 0 3.64 1.066 3.64 2.725 0 1.858-1.661 2.665-3.365 2.756v.031c1.752.136 3.456.335 3.456 2.528 0 1.431-.898 2.833-3.914 2.833h-10.371v-10.873zm5.221 8.663h2.722c1.02 0 1.368-.424 1.368-1.048 0-.625-.352-1.072-1.356-1.072h-2.734v2.119zm0-4.055h2.601c1.005 0 1.398-.407 1.398-1.031 0-.716-.397-1.073-1.325-1.073h-2.673v2.105z" fill="#003768"/></g></svg>