<svg width="70" height="40" xmlns="http://www.w3.org/2000/svg" xmlns:xlink="http://www.w3.org/1999/xlink">
  <defs>
    <rect id="a" x=".15031122" y=".683125" width="29.3725635" height="29.1383396" rx="3.25366875"/>
    <linearGradient x1="69.6701081%" y1="47.2639407%" x2="-5.79367707%" y2="57.7596435%" id="b">
      <stop stop-color="#81CFF4" offset=".2%"/>
      <stop stop-color="#0998D5" offset="46.7%"/>
      <stop stop-color="#273680" offset="100%"/>
    </linearGradient>
    <linearGradient x1="41.2182087%" y1="-4.69138664%" x2="61.0478945%" y2="38.3798504%" id="d">
      <stop stop-color="#0998D5" offset="0%"/>
      <stop stop-color="#273680" offset="100%"/>
    </linearGradient>
    <linearGradient x1="65.768265%" y1="85.4893428%" x2="50.846428%" y2="4.58810042%" id="e">
      <stop stop-color="#E20E7E" offset="0%"/>
      <stop stop-color="#E20E7E" offset=".5%"/>
      <stop stop-color="#6E237F" offset="100%"/>
    </linearGradient>
    <linearGradient x1="77.2800057%" y1="75.1500923%" x2="36.8277644%" y2="-1.4383337%" id="f">
      <stop stop-color="#FABE03" offset="0%"/>
      <stop stop-color="#EE8906" offset="47%"/>
      <stop stop-color="#E64516" offset="100%"/>
    </linearGradient>
    <linearGradient x1="3690.2915%" y1="9910.1%" x2="4459.56974%" y2="14444.9%" id="g">
      <stop stop-color="#97C02B" offset="0%"/>
      <stop stop-color="#06863B" offset="99.8%"/>
      <stop stop-color="#06863B" offset="100%"/>
    </linearGradient>
    <linearGradient x1="78.9898043%" y1="36.4739214%" x2="68.2555284%" y2="51.5065838%" id="h">
      <stop stop-color="#EE8906" offset="0%"/>
      <stop stop-color="#E64516" offset="100%"/>
    </linearGradient>
  </defs>
  <g fill="none" fill-rule="evenodd">
    <path d="M39.0688452 15.1445896c.4808681 0 1.4164537.1571641 1.4164537.7321735.0062909.1123315-.033681.2223802-.1107512.3049143-.0770702.0825341-.1846277.130474-.2980121.1328282-.2698853 0-.4544635-.228694-1.0079443-.228694-.8167649 0-1.2382227.6860821-1.2382227 1.4834888 0 .7777612.4280589 1.4444496 1.2384766 1.4444496.5534808 0 .777412-.2745336 1.0475512-.2745336.2388189.0147017.4271261.2072904.4346601.4445429 0 .6271456-.994742.7712127-1.4822113.7712127-1.33724 0-2.2662244-1.0520429-2.2662244-2.4053171 0-1.3593191.9221294-2.4050653 2.2662244-2.4050653zm4.0817936.5425186c.0960111-.3103542.3781556-.5274565.7050533-.5425186.3301891.0060056.6170659.2267492.7050532.5425186l1.2910319 3.5553358c.0306863.0772282.0485217.1588888.0528092.2417911-.0008817.1176181-.0497145.2298743-.135375.3111984-.0856606.081324-.2008546.1247909-.3193424.1204993-.2219368.0164057-.424102-.1265439-.4808682-.3400186l-.1975266-.6140485H42.939656l-.1972727.6077518c-.0524479.2145206-.2527275.3606107-.4747748.3463153-.125891.0038612-.2481354-.0422467-.33964-.1281048-.0915047-.085858-.1447119-.2043747-.1478293-.3292832.0008504-.0743557.016556-.1478059.0462081-.2161008l1.3242915-3.5553358zm.0726126 2.3725746h1.251679l-.6126372-1.895541h-.0134562l-.6255856 1.895541zm4.0421868-2.3332835c-.0066782-.1353424.0445829-.2671864.141145-.3630264.0965621-.0958401.2294402-.1467584.3658738-.1402013h1.0937592c1.4756102 0 2.3190336.9409702 2.3190336 2.3919683 0 1.3726679-.8962326 2.2617538-2.253276 2.2617538h-1.1460606c-.1364603.0106145-.2710505-.0367195-.3702999-.1302305-.0992494-.093511-.1538324-.2244129-.1501751-.360152v-3.6601119zm.9881408 3.2480597h.6651925c.8500246 0 1.2387305-.6205971 1.2387305-1.4051586 0-.8364459-.3953071-1.4441978-1.3044881-1.4441978h-.5994349v2.8493564zm4.4572973-3.1828265c0-.3266698.1645209-.5684609.5138739-.5684609h1.6337838c.1240928-.0083087.245904.0360542.3351004.1220414.0891965.0859873.1373849.2055076.1325654.3287982.0025437.1226296-.0463615.2408001-.1350319.3262802-.0886704.0854801-.209142.1305924-.3326339.1245593h-1.1595168v.9545709h1.0805569c.1256824-.0097815.2496686.03365.3412926.1195524.091624.0859024.1423296.2062538.1395756.3312872.0005101.1243438-.0508862.2433505-.1419838.3287594-.0910976.0854089-.2137695.1296003-.3388844.1220801h-1.0805569v.9933583h1.2186732c.1241601-.0083084.2460357.0360812.3352797.1221156.0892439.0860344.1374592.2056184.1326401.3289758.0026195.1227189-.0462885.2409983-.1350239.3265424-.0887354.085544-.2093161.1306579-.3328959.124549h-1.6995413c-.13435.0073089-.2656465-.0415263-.362035-.1346576-.0963885-.0931313-.1490608-.222048-.1452378-.355473v-3.5948787zm5.189009-.1045243c.0960111-.3103542.3781556-.5274565.7050533-.5425186.3301533.0059504.6169859.2267395.7047993.5425186l1.2912859 3.5553358c.0306862.0772282.0485216.1588888.0528091.2417911-.0008838.1175727-.0496818.2297888-.1352865.3111053-.0856047.0813164-.2007323.1248143-.319177.1205924-.2220289.0165323-.424339-.1264444-.4811221-.3400186l-.1975266-.6140485h-1.8315643l-.1975266.6077518c-.052432.2144214-.2525664.3604838-.4745209.3463153-.125891.0038612-.2481354-.0422467-.33964-.1281048-.0915047-.085858-.1447119-.2043747-.1478293-.3292832.0008504-.0743557.016556-.1478059.0462081-.2161008l1.3240376-3.5553358zm.0726127 2.3725746h1.2516789l-.6123833-1.895541h-.0134562l-.6258394 1.895541zm4.0025798-2.3660261c-.0082471-.180408.0840769-.3507258.2403396-.4433747.1562627-.0926489.351199-.0926489.5074617 0 .1562627.0926489.2485867.2629667.2403396.4433747v2.2808955c-.0217654.2795962.0756428.5554357.2685344.7604334.1928917.2049976.4635918.3203691.7462649.3180554.279068-.0068435.5435127-.1252413.733305-.3283169.1897924-.2030756.2888329-.4736029.2746393-.7501719v-2.2808955c-.0082471-.180408.0840769-.3507258.2403396-.4433747.1562627-.0926489.351199-.0926489.5074617 0 .1562627.0926489.2485867.2629667.2403396.4433747v2.3332836c-.0298894 1.0741083-.9162309 1.9294443-1.9993858 1.9294443-1.0831548 0-1.9694963-.855336-1.9993857-1.9294443l-.0002539-2.3332836zm-25.0325635 6.8159888c-.0032545-.1304094.0480127-.2563457.1416428-.347941.09363-.0915954.2212821-.1406903.3526816-.1356411.1322304-.0082716.2617411.0397914.3560319.132128.0942908.0923366.1444115.2201821.1377846.3514541v1.411959l1.6208354-1.7121829c.0950591-.1125015.2341812-.1791695.3821048-.1831063.1276761-.0022216.250963.0462126.3424884.1345491.0915254.0883365.1437148.2092648.1449809.335936 0 .1700093-.1053645.3072761-.3229484.5228731l-1.2450778 1.2157556 1.5218182 1.5751679c.1574538.1205229.2576233.3003019.2767404.4966791-.0003662.130028-.0567473.2536986-.1549322.3398396-.0981848.086141-.2288069.1265349-.3589417.111-.1911794 0-.3163473-.1108209-.5006716-.3070243l-1.7061425-1.8303078v1.666847c.0004725.128394-.0520831.2513778-.1454299.3403161-.0933469.0889384-.2193389.13607-.3486405.1304208-.130274.0090985-.2583456-.0369147-.3525349-.1266576-.0941894-.089743-.1456997-.2148342-.1417895-.3443312v-3.7777332zm7.6870352.0198974c.0960112-.3103542.3781556-.5274565.7050533-.5425186.3301533.0059504.6169859.2267395.7047993.5425186l1.2912859 3.5553358c.0306862.0772282.0485216.1588888.0528091.2417911-.0008838.1175727-.0496818.2297888-.1352865.3111053-.0856047.0813164-.2007323.1248143-.319177.1205924-.2219998.0164289-.42425-.1265054-.4811221-.3400186l-.1977805-.6143004h-1.8313104l-.1975266.6080037c-.052432.2144214-.2525664.3604838-.4745209.3463153-.1259339.0038608-.2482162-.0422814-.3397282-.1281936-.0915121-.0859122-.1446902-.2044936-.1477411-.3294463.0008839-.0742707.0165888-.147632.0462081-.2158489l1.3240376-3.5553358zm.0726127 2.3725746h1.2516789l-.6126372-1.895541h-.0132023l-.6258394 1.895541zm6.6524324-2.3725746c.0960111-.3103542.3781556-.5274565.7050532-.5425186.3301533.0059504.616986.2267395.7047994.5425186l1.2912858 3.5553358c.0306863.0772282.0485217.1588888.0528092.2417911-.0008838.1175727-.0496819.2297888-.1352866.3111053-.0856047.0813164-.2007323.1248143-.319177.1205924-.2220289.0165323-.4243389-.1264444-.481122-.3400186l-.1977805-.6143004h-1.8313104l-.1975266.6080037c-.052432.2144214-.2525664.3604838-.4745209.3463153-.125934.0038608-.2482162-.0422814-.3397283-.1281936-.0915121-.0859122-.1446902-.2044936-.147741-.3294463.0008839-.0742707.0165888-.147632.046208-.2158489l1.3240377-3.5553358zm.0726126 2.3725746h1.251679l-.6126372-1.895541h-.0132023l-.6258395 1.895541zm5.3118919-2.3269869c-.0148679-.1380055.0335352-.2753382.1318474-.3740868.0983123-.0987487.2361364-.1484697.3754253-.1354375h1.1595168c1.0145455 0 1.6403849.4508396 1.6403849 1.4769403 0 .7188247-.5468796 1.1308769-1.2186732 1.2351493l1.1199099 1.1895616c.0796517.07547.1269334.17848.132023.2876306.0015848.2736275-.2185513.4978406-.4943244.5034794-.1460278.0002037-.2851406-.0616915-.3821048-.1700093l-1.4626617-1.7582742H57.72724v1.4182556c.0082471.1804079-.0840769.3507258-.2403396.4433747-.1562628.0926489-.351199.0926489-.5074617 0-.1562627-.0926489-.2485867-.2629668-.2403396-.4433747v-3.673209zm.9881409 1.5489739h.6786486c.1620372.0151942.3227315-.0402234.4403261-.1518524.1175945-.1116289.1804784-.2684473.1723111-.4297055.0090614-.16098-.0537905-.3177515-.1718262-.428586-.1180357-.1108345-.2792789-.1644865-.440811-.1466752H57.72724v1.1568191zm5.9217362-1.1568191h-.7177477c-.1219474.0068097-.2409593-.0387246-.3267162-.1250026-.0857569-.0862781-.1299789-.2049696-.1214001-.3258369-.0036957-.119559.0421168-.2354052.1267757-.3205786.0846589-.0851734.2007805-.1322453.3213406-.130261h2.4241441c.1205601-.0019843.2366818.0450876.3213407.130261.0846589.0851734.1304713.2010196.1267756.3205786.0085789.1208673-.0356432.2395588-.1214001.3258369-.0857568.086278-.2047687.1318123-.3267162.1250026h-.7180016v3.2810542c.0071145.1797425-.085492.348936-.2413264.4409067-.1558343.0919707-.3499076.0919707-.505742 0-.1558343-.0919707-.2484409-.2611642-.2413264-.4409067v-3.2810542z" fill="#273680" fill-rule="nonzero"/>
    <g transform="translate(4.22113 4.803171)">
      <mask id="c" fill="#fff">
        <use xlink:href="#a"/>
      </mask>
      <path fill="url(#b)" fill-rule="nonzero" mask="url(#c)" d="M-11.1706552-1.7879291h50.6099754V33.026959h-50.6099754z"/>
      <path d="M58.8885831-.9119403L38.9127518 33.4097948c-1.1154231 1.9170097-3.1771344 3.0979846-5.4083701 3.0979846-2.2312358 0-4.2929471-1.1809749-5.4083702-3.0979846L14.3757821 9.85279851l6.2847994-10.7647388h38.2280016z" fill="url(#d)" fill-rule="nonzero" mask="url(#c)"/>
      <path fill="url(#e)" fill-rule="nonzero" mask="url(#c)" d="M20.6603276-.91219216L14.376036 9.8527985 8.1222113-.91219216h12.5381163z"/>
      <path d="M8.1222113-.9119403L14.376036 9.85279851 8.10494676 20.6117444c-1.02178275 1.7538242-2.908776 2.8340251-4.950733 2.8340251-2.041957 0-3.92895025-1.0802009-4.95073301-2.8340251L-14.3229566-.9119403H8.1222113z" fill="url(#f)" fill-rule="nonzero" mask="url(#c)"/>
      <path d="M1.38904177 49.9770149H27.0548075c1.3436513-.0000131 2.5852262-.7111486 3.2570234-1.8655219.6717972-1.1543733.6717518-2.5766022-.0001192-3.7309333L17.4788288 22.3307276c-.6718115-1.1543563-1.9133875-1.8654717-3.2570311-1.8654717-1.3436436 0-2.5852196.7111154-3.2570311 1.8654717L-1.8681163 44.3805597c-.67189367 1.15437-.67191491 2.5766526-.00005571 3.7310423.67185919 1.1543898 1.91351714 1.8654898 3.25721378 1.8654129z" fill="url(#g)" fill-rule="nonzero" mask="url(#c)"/>
      <path d="M-33.1303849 50.8388993H-.64258804c1.70082184.000054 3.2724625-.9000794 4.12285168-2.3613011.85038917-1.4612217.85031989-3.2615156-.00018174-4.7226728l-16.2438984-27.9107463c-.8503696-1.4611466-2.4219235-2.361251-4.12267-2.361251-1.7007465 0-3.2723004.9001044-4.1226699 2.361251l-16.2438985 27.9107463c-.8503943 1.4611807-.8503695 3.2614353.000065 4.722593.8504345 1.4611576 2.4220702 2.3612211 4.1228589 2.361129l-.0002539.0002519z" fill="url(#h)" fill-rule="nonzero" mask="url(#c)"/>
    </g>
    <path d="M27.5881818 10.5505597H9.51373464c-.94627586-.00005606-1.8206965.50071335-2.2938589 1.3136634-.4731624.81295004-.47317748 1.81456657-.00003954 2.6275306l9.0374775 15.5282743c.4731488.8128471 1.3474653 1.3135669 2.2936445 1.3135669.9461793 0 1.8204958-.5007198 2.2936446-1.3135669l9.0374775-15.5282743c.4731379-.81296403.4731228-1.81458056-.0000396-2.6275306-.4731624-.81295005-1.347583-1.31371946-2.2938589-1.3136634z" fill="#FFF" fill-rule="nonzero"/>
    <path d="M28.4369369 13.7913153c-1.1183019 1.9249254-2.2388042 3.8469963-3.3615069 5.7662127-.1894581.3386463-.5504696.5473558-.9408731.5439414-.3904035-.0034143-.7476497-.2184054-.9310598-.5603127-1.1100082-1.9151866-2.2177313-3.8307089-3.3231695-5.74656715-.2050004-.3273156-.2149129-.73918212-.025892-1.07583001.1890208-.33664789.5472316-.54510417.9356767-.54450534.3884451.00059883.7460011.21015854.9339663.54738759.7837592 1.34017721 1.5560934 2.68388061 2.3347748 4.02783581.0233579.0395429.0500164.0790858.0931777.1486008.2813104-.4805597.5440868-.9329105.8086405-1.3852612.5425635-.9276213 1.0800491-1.85700563 1.6259132-2.78135265.1853064-.33871225.5413089-.55098266.9297732-.55438752.3884643-.00340487.7481921.20259222.9395026.53800345.1913105.33541123.1840648.74739623-.0189237 1.07598295M22.8589681 23.356166c-.7253645 1.2578172-1.4593612 2.5090859-2.1898035 3.7636288-.3860824.66375-.7721649 1.3263246-1.1582473 1.9877239-.474267.8087406-1.4674857.8135261-1.938706.0050373-1.1013759-1.8987314-2.1996205-3.7983862-3.2947338-5.6989646-.2555479-.4045059-.207887-.9284065.1165356-1.2809888.3071237-.351745.8160947-.4511077 1.2346683-.2410354.1898584.0950873.3506904.2387253.4658886.4160821.781982 1.3190205 1.5444144 2.6496268 2.3129402 3.976707.0418919.0692631.083276.137015.1383702.2309609.2295168-.3929105.444308-.757612.6573219-1.1240765.592326-1.0135075 1.179828-2.0305411 1.7787551-3.0407743.1660999-.3077645.4751832-.5138357.8251779-.5501604.3499947-.0363248.6953797.1018215.9220948.3688171.2919787.3285336.3439342.8038023.129738 1.1867911m-10.86624902-3.7585914a6012.14006843 6012.14006843 0 0 0-1.99354627-3.4470336c-.44430795-.7656717-.89191646-1.530084-1.32962326-2.2995336-.1946802-.32625437-.19876229-.730845-.01070386-1.06089963.18805843-.33005464.53958234-.53524675.92175042-.53804567.38216808-.00279891.73670758.19722214.92965778.52448634.77859678 1.33707086 1.55457002 2.67472946 2.32791974 4.01297576.02818182.0511287.0599181.1007463.10485667.1765578.4074939-.6999347.7969615-1.366875 1.1864292-2.0338153.4224733-.7228545.8403767-1.44923505 1.2679279-2.17057833.3009816-.50417363.9569743-.67083897 1.4652006-.37225745.5082264.29858151.6762314.94934314.3752498 1.45351678-1.0267321 1.7647388-2.0550723 3.528806-3.0850204 5.2922015-.0931778.1569123-.1830549.3170989-.2780099.4740112-.1889346.3418055-.5515797.5533209-.94452643.5509019-.39294673-.0024189-.75291785-.2183826-.93756199-.5624877" fill="#273680" fill-rule="nonzero"/>
  </g>
</svg>
